<?xml version="1.0" standalone="no"?>
<!DOCTYPE svg PUBLIC "-//W3C//DTD SVG 1.1//EN" "http://www.w3.org/Graphics/SVG/1.1/DTD/svg11.dtd" >
<svg xmlns="http://www.w3.org/2000/svg">
<metadata>
This is a custom SVG webfont generated by Font Squirrel.
Copyright   : Copyright c 1991 Adobe Systems Incorporated  All Rights ReservedBerthold Akzidenz Grotesk is a registered trademark of H Berthold AG
</metadata>
<defs>
<font id="BertholdAkzidenzGroteskBEExRg" horiz-adv-x="1492" >
<font-face units-per-em="2048" ascent="1638" descent="-410" />
<missing-glyph horiz-adv-x="768" />
<glyph unicode=" "  horiz-adv-x="768" />
<glyph unicode="&#x09;" horiz-adv-x="768" />
<glyph unicode="&#xa0;" horiz-adv-x="768" />
<glyph unicode="!" horiz-adv-x="598" d="M240 817v596h206v-594l-57 -452h-90zM242 0v205h204v-205h-204z" />
<glyph unicode="&#x22;" horiz-adv-x="811" d="M106 1427q0 51 34 79t79 28q66 0 92 -55q12 -27 8 -64l-83 -526h-48l-79 502q-3 18 -3 36zM489 1427q0 51 34 79t79 28q68 0 94 -55q10 -23 6 -64l-81 -526h-48l-79 502z" />
<glyph unicode="#" horiz-adv-x="1366" d="M84 469v158h307l33 221h-289v158h309l64 438h164l-64 -438h226l65 438h160l-62 -438h283v-158h-303l-33 -221h285v-158h-307l-68 -469h-162l68 469h-228l-67 -469h-166l72 469h-287zM553 627h229l31 221h-225z" />
<glyph unicode="$" horiz-adv-x="1579" d="M43 301l195 74q37 -43 55 -63.5t57 -50.5t86 -50q143 -55 277 -66v521q-113 8 -178.5 16t-160.5 41t-151 84q-102 92 -102 237q0 176 125 285q63 53 155.5 86t153.5 41t160 14v199h159v-203q436 -25 603 -278l-195 -74q-45 55 -98 90q-123 84 -312 99v-459 q131 -8 203 -17.5t157 -36t142 -71.5q137 -102 137 -297q0 -184 -135 -309q-68 -59 -167 -92t-164.5 -40.5t-176.5 -11.5v-241h-157v243q-98 8 -153.5 16.5t-154 39t-176.5 82.5q-102 65 -184 192zM315 1071q0 -43 15.5 -76.5t49.5 -56.5t65.5 -37t87 -23.5t88 -13.5 t94.5 -10v459q-217 -16 -312 -84q-88 -62 -88 -158zM870 139q250 10 357 92q88 68 88 183q0 57 -23.5 99t-57.5 66.5t-97.5 41t-118.5 22.5t-148 14v-518z" />
<glyph unicode="%" horiz-adv-x="2134" d="M53 954q0 201 118 333t300 132q152 0 260 -96q145 -127 146 -362q0 -129 -52.5 -238t-146.5 -168q-88 -57 -215 -57q-190 0 -300 130.5t-110 325.5zM199 952q0 -160 74.5 -247t189.5 -87q133 0 201.5 99.5t68.5 238.5q0 164 -77.5 254t-190.5 90q-115 0 -190.5 -97 t-75.5 -251zM571 37l883 1397l100 -62l-882 -1397zM1249 446q0 201 117 334t299 133q152 0 260 -96q147 -129 148 -364q0 -127 -52.5 -234.5t-148.5 -169.5q-88 -57 -215 -57q-190 0 -299 130.5t-109 323.5zM1393 444q0 -160 74.5 -245.5t189.5 -85.5q135 0 202.5 98 t67.5 238q0 164 -77.5 255t-190.5 91q-115 0 -190.5 -98.5t-75.5 -252.5z" />
<glyph unicode="&#x26;" horiz-adv-x="1579" d="M80 379q0 53 12 98t28.5 77t51.5 63.5t59.5 49t75.5 41t78 34t84 32.5q-43 41 -66.5 68.5t-50 87t-26.5 127.5q0 145 107.5 236t283.5 91q178 0 275.5 -95t97.5 -224q0 -106 -62 -188q-76 -102 -248 -158q84 -84 271 -256l102 -90q63 104 86 164q23 66 29 151l176 6 q-16 -147 -49 -232t-113 -196q117 -96 199 -96q16 0 45 4v-166q-59 -18 -101 -18q-66 0 -115.5 25.5t-160.5 105.5q-72 -43 -120 -67.5t-166 -57.5t-245 -33q-258 0 -403 125q-135 119 -135 291zM287 395q0 -115 98 -190.5t262 -75.5q201 0 363 107q-141 123 -260 241 q-12 12 -82 83t-84 85q-57 -16 -95 -30.5t-91.5 -43t-82 -74t-28.5 -102.5zM526 1071q0 -115 146 -233q35 10 55.5 17t56 26.5t56 41t37 57.5t16.5 81q0 84 -53.5 131t-126.5 47q-82 0 -134.5 -49t-52.5 -119z" />
<glyph unicode="'" horiz-adv-x="425" d="M106 1427q0 51 34 79t79 28q66 0 92 -55q12 -27 8 -64l-83 -526h-48l-79 502q-3 18 -3 36z" />
<glyph unicode="(" horiz-adv-x="681" d="M78 643q0 328 203 604q53 72 112.5 131.5t97 91t99.5 76.5l61 -61q-190 -193 -281 -372t-91 -429q0 -330 135 -592q37 -70 86 -135.5t78.5 -96t87.5 -85.5l-66 -64q-225 180 -324 320q-198 278 -198 612z" />
<glyph unicode=")" horiz-adv-x="681" d="M16 1487l66 63q215 -168 324 -319q199 -279 198 -613q0 -328 -203 -604q-53 -72 -112.5 -131t-97 -91t-99.5 -77l-61 62q190 190 281 370.5t91 430.5q0 330 -135 591q-37 70 -86 135.5t-79 96.5t-87 86z" />
<glyph unicode="*" horiz-adv-x="894" d="M90 1122l43 140l236 -72v256h149v-252l240 70l39 -138l-232 -71l142 -201l-117 -84l-141 193l-148 -195l-119 84l148 195z" />
<glyph unicode="+" horiz-adv-x="1366" d="M88 514v164h510v510h164v-510h514v-164h-514v-514h-164v514h-510z" />
<glyph unicode="," horiz-adv-x="512" d="M145 0v221h224v-250q0 -111 -31 -157q-49 -78 -193 -88v112q66 4 79.5 34t13.5 128h-93z" />
<glyph unicode="-" horiz-adv-x="854" d="M121 432v146h645v-146h-645z" />
<glyph unicode="." horiz-adv-x="512" d="M141 0v223h226v-223h-226z" />
<glyph unicode="/" horiz-adv-x="854" d="M23 0l634 1446h185l-637 -1446h-182z" />
<glyph unicode="0" horiz-adv-x="1449" d="M104 713q0 137 39 263t114 230.5t200 167t282 64.5q305 2 475 -208t170 -534q0 -332 -175 -530.5t-468 -198.5q-205 0 -352 103.5t-216 269.5t-69 373zM311 688q0 -252 122 -403.5t312 -151.5q158 0 277 109q158 152 158 456q0 229 -90 377q-47 80 -136.5 140.5 t-214.5 56.5q-170 -4 -286 -135q-142 -156 -142 -449z" />
<glyph unicode="1" horiz-adv-x="1449" d="M285 1032v139q166 4 270 60q49 25 85 59.5t49 55t36 61.5h154v-1407h-203v1098q-86 -37 -159.5 -49.5t-231.5 -16.5z" />
<glyph unicode="2" horiz-adv-x="1449" d="M133 885q8 182 80 293q70 109 199 180.5t299 71.5q137 0 247.5 -44.5t178 -117t103.5 -158.5t36 -176q0 -207 -160 -367q-88 -88 -268 -192.5t-316.5 -167t-136.5 -55.5q109 14 205 16h711v-168h-1157v193q465 221 700 397q100 72 158.5 149.5t58.5 188.5 q0 152 -104.5 242t-264.5 90q-168 0 -268 -97q-43 -43 -66.5 -102.5t-28.5 -98t-7 -106.5z" />
<glyph unicode="3" horiz-adv-x="1449" d="M98 381l193 45q8 -41 16 -67.5t38 -72.5t73 -75t126 -51.5t191 -22.5q170 0 275.5 66.5t105.5 206.5q0 106 -65 172q-47 45 -130 61t-225 16q-90 0 -137 -2v154q201 -4 301 12q102 18 151.5 71.5t49.5 127.5q0 113 -92 184q-90 70 -250 70q-178 0 -287 -92 q-74 -61 -90 -183l-190 35q16 61 26 94t50 94.5t98 104.5q145 106 387 107q264 0 411.5 -112t147.5 -286q0 -92 -47 -164q-49 -76 -168 -118q119 -45 178 -111q92 -98 92 -246q0 -193 -158.5 -310.5t-435.5 -117.5q-209 0 -344 54q-63 25 -112.5 62.5t-77 70t-51 82t-31 74 t-19.5 67.5z" />
<glyph unicode="4" horiz-adv-x="1449" d="M88 340v164l850 907h160v-909h241v-162h-241v-340h-191v340h-819zM309 502h598v469q0 61 2 94q0 29 4 94q0 -2 -48 -58.5t-58 -66.5z" />
<glyph unicode="5" horiz-adv-x="1449" d="M96 367l193 41q41 -92 92 -144q129 -129 346 -129q203 0 308.5 109.5t105.5 253.5q0 94 -39 164.5t-100.5 108.5t-127 55.5t-133.5 17.5q-123 0 -243.5 -56.5t-184.5 -177.5l-157 31l41 770h1081l-10 -174h-918l-24 -377q188 147 440 148q254 0 417 -136.5t163 -357.5 q0 -238 -181.5 -389.5t-451.5 -151.5q-233 0 -404 109q-145 95 -213 285z" />
<glyph unicode="6" horiz-adv-x="1449" d="M133 692q0 195 60.5 343.5t163 233.5t221 126t249.5 41q209 0 383 -117q88 -59 170 -168l-190 -74q-141 193 -377 193q-223 0 -360 -152q-131 -152 -138 -442q43 96 125 158q152 109 375 108q147 0 274.5 -47t214.5 -157.5t87 -266.5q0 -207 -150 -348 q-164 -156 -444 -156q-301 0 -482.5 185.5t-181.5 539.5zM377 457q0 -150 119.5 -236t308 -86t290 90t101.5 234q0 109 -68.5 185.5t-163 107t-200.5 26.5q-168 -4 -277.5 -92t-109.5 -229z" />
<glyph unicode="7" horiz-adv-x="1449" d="M164 1235v174h1120v-131q-256 -248 -397 -555q-61 -135 -101.5 -278.5t-53.5 -224.5t-30 -220h-223q20 150 41 248t84.5 276t163.5 348q109 186 276 363h-880z" />
<glyph unicode="8" horiz-adv-x="1449" d="M102 389q0 248 252 336q6 2 22.5 7t22.5 7q-12 4 -41 13q-80 29 -143 102.5t-63 192.5q0 139 96 239q143 150 483 150q246 0 385 -88q170 -109 170 -293q0 -80 -25.5 -139.5t-73.5 -95.5t-80 -51t-81 -32q51 -10 79 -18t70 -32.5t74 -61.5q90 -98 90 -232 q0 -217 -194 -332q-156 -92 -434 -92q-332 0 -498 160q-111 110 -111 260zM307 401q0 -86 47 -143q96 -119 381 -119q145 0 228 31q25 8 49 22.5t55 41t49.5 67.5t18.5 90q0 94 -64 162q-98 104 -399 96q-365 -8 -365 -248zM356 1044q0 -238 369 -237q180 0 268 64.5 t88 166.5q0 72 -34.5 123t-85 71.5t-106.5 35t-98 11.5t-63 -1q-338 -11 -338 -234z" />
<glyph unicode="9" horiz-adv-x="1449" d="M74 942q0 236 180 366t438 130q319 0 488 -185q162 -172 161 -518q0 -176 -44 -313t-111.5 -221t-160.5 -138.5t-182 -75t-184 -20.5q-221 0 -389 111q-117 80 -194 231l182 74q25 -49 50.5 -85t71.5 -78t115.5 -64.5t159.5 -22.5q238 0 373 162q117 135 129 377 q-78 -78 -160 -121q-156 -84 -342 -84q-248 0 -414.5 128t-166.5 347zM276 948q0 -131 104.5 -226t303.5 -95q172 0 303 87t131 240q0 150 -118.5 237t-299.5 85q-195 -2 -309.5 -92.5t-114.5 -235.5z" />
<glyph unicode=":" horiz-adv-x="598" d="M225 793v219h224v-219h-224zM227 0v217h222v-217h-222z" />
<glyph unicode=";" horiz-adv-x="598" d="M227 0v221h224v-250q0 -113 -31 -157q-49 -78 -193 -88v110q66 6 79 36t13 128h-92zM227 795v223h224v-223h-224z" />
<glyph unicode="&#x3c;" horiz-adv-x="1366" d="M0 635v176l1366 641v-178l-1161 -551l1161 -553v-176z" />
<glyph unicode="=" horiz-adv-x="1366" d="M0 330v159h1366v-159h-1366zM0 700v160h1366v-160h-1366z" />
<glyph unicode="&#x3e;" horiz-adv-x="1366" d="M0 -6v176l1159 553l-1159 551v178l1366 -641v-176z" />
<glyph unicode="?" horiz-adv-x="1366" d="M133 1032q43 168 137 271q166 178 467 178q252 0 409 -131t157 -320q0 -82 -29 -145.5t-89.5 -108.5t-103.5 -67.5t-120 -53.5q-121 -49 -167 -80.5t-59.5 -71.5t-15.5 -132h-152q0 184 28 248.5t163 121.5q14 6 67.5 29t83.5 37q35 16 56.5 29.5t56.5 42t53.5 70.5 t18.5 95q0 129 -110 204t-253 75q-188 0 -309 -117q-78 -74 -111 -209zM539 0v207h206v-207h-206z" />
<glyph unicode="@" horiz-adv-x="1835" d="M141 479q0 254 120 478.5t339 362.5t485 138q279 0 444 -161.5t165 -428.5q0 -182 -67.5 -351t-177.5 -271.5t-228 -102.5q-51 0 -86 21q-78 41 -84 153q-131 -172 -293 -172q-111 0 -190 83t-79 249q0 227 130.5 404.5t302.5 177.5q162 0 235 -172l31 127h139l-65 -307 q-59 -256 -59.5 -348.5t63.5 -92.5q94 0 201.5 185.5t107.5 410.5q0 242 -145.5 363t-356.5 121q-334 0 -574.5 -259.5t-240.5 -605.5q0 -131 40 -238.5t105.5 -177t153.5 -117.5t180 -68.5t189 -20.5q379 0 686 299l67 -84q-100 -94 -180 -148q-268 -180 -571 -180 q-109 0 -216.5 24.5t-212 81t-183 139.5t-127 208.5t-48.5 279.5zM651 485q0 -88 35 -141q47 -68 129 -68q115 0 202 133.5t91 303.5q2 102 -49 158.5t-123 56.5q-123 0 -204 -142.5t-81 -300.5z" />
<glyph unicode="A" horiz-adv-x="1705" d="M0 0l748 1448h217l741 -1448h-236l-176 356h-888l-177 -356h-229zM492 524h714l-305 609q-4 12 -16.5 36.5t-16.5 36.5q-12 37 -16 56q-16 -49 -21 -60q-6 -14 -34 -78z" />
<glyph unicode="B" horiz-adv-x="1835" d="M174 0v1446h928q102 0 169.5 -6t158 -43t143.5 -105q72 -92 72 -223q0 -182 -132 -264q-57 -33 -71 -33q274 -88 274 -369q0 -186 -129 -292q-61 -51 -155.5 -78t-158 -30t-171.5 -3h-928zM379 168h784q180 0 262 70q78 68 78 182q0 113 -86 188q-76 59 -254 60h-784 v-500zM379 834h756q137 0 194 32q102 55 103 189q0 115 -95 178q-72 45 -237 45h-721v-444z" />
<glyph unicode="C" horiz-adv-x="1878" d="M100 733q0 373 269 574q227 182 604 182q334 0 551 -135q154 -96 264 -283l-221 -49q-68 119 -158 178q-166 109 -428 109q-133 0 -249 -33t-211 -98.5t-149.5 -178t-54.5 -260.5q0 -246 150 -411q180 -184 526 -185h10q292 0 451 125q96 72 145 174l218 -45 q-35 -63 -59.5 -100t-77 -90t-119.5 -96q-229 -145 -582 -146q-424 0 -651.5 215t-227.5 553z" />
<glyph unicode="D" horiz-adv-x="1792" d="M174 0v1446h719q82 0 133 -3t129 -17.5t150.5 -49.5t140.5 -90q240 -197 240 -553q0 -319 -203 -526q-72 -72 -160 -117t-194.5 -62.5t-182.5 -22.5t-192 -5h-580zM381 174h422q88 0 146.5 5t141.5 22.5t150.5 61.5t122.5 114q113 147 113 362q0 252 -152 400 q-63 63 -148 95t-136.5 36t-145.5 6h-514v-1102z" />
<glyph unicode="E" horiz-adv-x="1622" d="M174 0v1446h1335v-178h-1130v-432h1100v-170h-1100v-488h1182v-178h-1387z" />
<glyph unicode="F" horiz-adv-x="1536" d="M176 0v1446h1284v-174h-1083v-465h1042v-172h-1042v-635h-201z" />
<glyph unicode="G" horiz-adv-x="1878" d="M100 725q0 225 125 414q106 154 300 248t438 94q219 0 377.5 -65.5t248.5 -141.5q72 -61 142 -176l-203 -62q-49 72 -92 109q-182 158 -457 158q-281 0 -470.5 -151t-189.5 -415q0 -186 99 -336q55 -86 137 -143t168 -80.5t142.5 -32t107.5 -8.5q123 0 253 45t224 146 q43 45 67.5 95t31.5 81t16 86h-637v172h809v-764h-178v199q-63 -57 -80 -72q-88 -68 -233.5 -114t-317.5 -46q-367 0 -597.5 221.5t-230.5 538.5z" />
<glyph unicode="H" horiz-adv-x="1878" d="M174 0v1448h207v-592h1108v592h207v-1448h-207v684h-1108v-684h-207z" />
<glyph unicode="I" horiz-adv-x="555" d="M170 0v1446h211v-1446h-211z" />
<glyph unicode="J" horiz-adv-x="1449" d="M57 356l209 41q57 -121 141.5 -185.5t254.5 -64.5q133 0 233 39q61 25 99 62t52.5 86t17.5 79.5t3 82.5v950h205v-957q0 -188 -58 -282q-70 -117 -217 -179.5t-317 -62.5q-195 0 -338 66q-191 83 -285 325z" />
<glyph unicode="K" horiz-adv-x="1705" d="M174 0v1446h203v-770l1042 770h301l-731 -545l760 -901h-274l-654 778l-448 -329v-449h-199z" />
<glyph unicode="L" horiz-adv-x="1323" d="M174 0v1446h205v-1270h958v-176h-1163z" />
<glyph unicode="M" horiz-adv-x="2048" d="M172 0v1446h283l450 -942q72 -154 139 -324q51 141 132 318l456 948h279v-1446h-193v831q0 289 19 443q-39 -106 -109 -254l-493 -1020h-189l-452 938q-96 197 -146 330q12 -104 17 -367v-901h-193z" />
<glyph unicode="N" horiz-adv-x="1878" d="M174 0v1446h211l975 -1034q78 -82 153 -176q-10 96 -12 213v997h197v-1446h-201l-1024 1083q-51 57 -113 134q10 -125 11 -250v-967h-197z" />
<glyph unicode="O" horiz-adv-x="1961" d="M98 705q0 193 75 345t201 244t278.5 139.5t318.5 47.5q387 -2 635.5 -214t248.5 -565q0 -180 -70.5 -323t-191 -233.5t-276.5 -137.5t-332 -47q-369 0 -594 160q-293 203 -293 584zM303 717q0 -225 127 -369q178 -209 555 -209q154 0 273.5 38t191.5 96.5t118 138.5 t63.5 155.5t17.5 155.5q0 279 -198 434q-188 148 -473 148h-30q-121 -4 -229.5 -37t-204.5 -98.5t-153.5 -182t-57.5 -270.5z" />
<glyph unicode="P" horiz-adv-x="1662" d="M170 0v1446h883q299 0 440 -121q141 -125 141 -321q0 -143 -75 -250q-45 -61 -104.5 -100.5t-134.5 -53.5t-123 -18t-124 -4h-694v-578h-209zM377 752h667q182 0 259 51q109 70 108 211q0 109 -68 176q-39 39 -98 58.5t-103 22.5t-120 3h-645v-522z" />
<glyph unicode="Q" horiz-adv-x="2004" d="M100 700q0 264 140 447q76 102 190 178q231 156 574 156q389 0 641.5 -211t252.5 -547q0 -139 -46 -258t-86 -168t-107 -117l283 -162l-105 -149l-340 190q-225 -96 -500 -96q-399 0 -648 201.5t-249 535.5zM307 717q0 -272 185.5 -427t508.5 -155q166 0 294 41 t201 101.5t119 142.5t61.5 152.5t15.5 144.5q0 274 -195 436q-185 154 -489 154h-31q-389 -10 -557 -232q-113 -147 -113 -358z" />
<glyph unicode="R" horiz-adv-x="1835" d="M174 0v1446h983q88 -2 138.5 -6t130 -32t137.5 -79q129 -113 129 -309q0 -98 -34 -174t-74 -116t-105.5 -68.5t-97 -36t-78.5 -15.5l532 -610h-268l-490 578h-698v-578h-205zM377 748h715q76 0 123 4t111.5 29.5t103.5 76.5q49 63 49 153.5t-43 153.5q-31 49 -81 74 t-84 28t-100 5h-794v-524z" />
<glyph unicode="S" horiz-adv-x="1662" d="M39 293l188 78q41 -49 101 -88q205 -141 540 -142q233 0 362.5 79t129.5 214q0 29 -6 54.5t-20.5 46t-29 36t-44 28.5t-49 22.5t-61.5 17.5t-66.5 13t-76 10.5t-78 8.5t-83.5 7q-303 27 -411.5 49.5t-186.5 91.5q-102 96 -103 242q0 84 32 152.5t79 111.5t115.5 75 t128 47t132.5 24.5t110.5 10.5t80.5 1q358 0 576 -146q82 -55 145 -145l-186 -76q-55 55 -84 76q-170 121 -447 121q-229 0 -348 -60q-129 -63 -129 -182q0 -63 43 -110q35 -39 90.5 -55.5t169.5 -28.5q66 -8 196 -18.5t195 -18.5q111 -10 187 -29q139 -33 235.5 -123 t96.5 -252q0 -137 -74 -241q-162 -229 -635 -230q-207 0 -373 43q-297 74 -442 285z" />
<glyph unicode="T" horiz-adv-x="1449" d="M29 1274v172h1386v-172h-592v-1274h-205v1274h-589z" />
<glyph unicode="U" horiz-adv-x="1835" d="M172 596v850h207v-858q2 -139 28.5 -215t114.5 -131q150 -98 398 -99q205 0 342 64q66 31 106.5 70.5t57 95t19.5 91.5t3 97v885h207v-868q0 -76 -4 -121t-22.5 -119t-68 -135.5t-126.5 -112.5q-190 -125 -516 -125q-334 0 -535 139q-74 51 -119 110.5t-63.5 130.5 t-23.5 121t-5 130z" />
<glyph unicode="V" horiz-adv-x="1579" d="M-2 1446h227l504 -1069q41 -84 70 -180q16 78 53 157l504 1092h225l-682 -1446h-207z" />
<glyph unicode="W" horiz-adv-x="2260" d="M-6 1446h219l340 -1081q29 -96 37 -179q23 109 65 232l381 1028h183l399 -1090q27 -76 45 -161q14 100 45 194l332 1057h217l-477 -1446h-228l-354 983q-47 131 -72 254q-18 -106 -59 -223l-369 -1014h-233z" />
<glyph unicode="X" horiz-adv-x="1748" d="M-4 0l739 766l-649 680h283l499 -547l506 547h281l-662 -678l756 -768h-289l-594 633l-590 -633h-280z" />
<glyph unicode="Y" horiz-adv-x="1662" d="M4 1446h262l502 -631q39 -51 59 -98q18 41 56 88l514 641h264l-733 -887v-559h-203v563z" />
<glyph unicode="Z" horiz-adv-x="1579" d="M61 0v170l1133 1098h-1047v178h1338v-172l-1135 -1094h1155v-180h-1444z" />
<glyph unicode="[" horiz-adv-x="768" d="M244 -311v1878h452v-156h-250v-1567h246v-155h-448z" />
<glyph unicode="\" horiz-adv-x="854" d="M23 1446h182l637 -1446h-185z" />
<glyph unicode="]" horiz-adv-x="768" d="M72 -154h247v1565h-247v158h450v-1878h-450v155z" />
<glyph unicode="^" d="M291 690l385 756h158l368 -756h-198l-254 531l-263 -531h-196z" />
<glyph unicode="_" horiz-adv-x="1024" d="M-20 -154h1064v-102h-1064v102z" />
<glyph unicode="`" horiz-adv-x="768" d="M186 1409h256l138 -281h-134z" />
<glyph unicode="a" horiz-adv-x="1409" d="M80 307q0 98 57.5 177t171.5 110q111 29 434 29h283q0 51 -1 76.5t-10 59.5t-31.5 56.5t-61.5 38.5q-78 35 -226 35q-154 0 -243 -37q-76 -29 -111 -94l-197 18q18 47 30.5 72.5t50.5 65.5t89.5 61.5t146.5 38t222 16.5q172 0 303 -35q63 -18 108.5 -46.5t67 -56.5 t33.5 -72t13 -69.5t1 -70.5v-363q0 -61 2 -86.5t12.5 -54.5t33 -38t63.5 -9l74 6v-133q-127 -12 -172 -12q-61 0 -101.5 14t-57.5 45t-23.5 51.5t-10.5 59.5q-49 -76 -135 -123q-141 -74 -340 -74q-145 0 -246.5 37t-146.5 95.5t-63.5 109.5t-18.5 102zM274 309 q0 -78 72 -137t215 -59q199 0 328 86q139 94 139 274h-364q-215 0 -285 -27q-105 -39 -105 -137z" />
<glyph unicode="b" d="M160 0v1448h194v-563q74 68 193 106.5t241 38.5q106 0 211 -30.5t196 -90t147.5 -165t56.5 -240.5q0 -244 -166 -387.5t-440 -143.5q-287 0 -439 140v-113h-194zM340 492q0 -178 129 -268.5t309 -90.5q207 0 313.5 107.5t106.5 255.5q0 180 -134 282q-124 95 -291 95 q-13 0 -28 -1q-174 -8 -289.5 -109t-115.5 -271z" />
<glyph unicode="c" horiz-adv-x="1409" d="M88 504q0 246 188.5 385t477.5 139q244 0 403 -102q117 -74 189 -203l-187 -53q-49 82 -115 125q-121 78 -290 77q-186 0 -322.5 -100t-136.5 -285q0 -168 131 -268t328 -100q172 0 295 74q70 43 120 120l187 -47q-59 -102 -125 -155q-184 -145 -483 -146q-184 0 -322 49 q-164 59 -251 187.5t-87 302.5z" />
<glyph unicode="d" d="M92 506q0 238 176 378t424 140q113 0 210 -27.5t137 -51t96 -62.5v563h194v-1446h-194v133q-178 -152 -449 -151q-274 0 -434 153.5t-160 370.5zM295 491.5q0 -165.5 120 -258t296 -92.5q166 0 282 70q152 92 152 299q0 100 -42 175t-110.5 113t-141.5 54t-151 16 q-190 -2 -297.5 -106.5t-107.5 -270z" />
<glyph unicode="e" horiz-adv-x="1409" d="M92 506q0 236 166 381t440 145q272 0 442.5 -156.5t176.5 -398.5h-1026q16 -127 74 -196q57 -72 155 -114t209 -42q147 0 258 74q33 23 57.5 49t36 42.5t29.5 51.5l186 -51q-25 -47 -39 -71.5t-48.5 -62.5t-82.5 -71q-172 -117 -421 -117q-256 0 -434.5 139.5 t-178.5 397.5zM297 623h801q-16 41 -32.5 70.5t-59.5 81.5t-119 82t-176 30q-301 0 -414 -264z" />
<glyph unicode="f" horiz-adv-x="641" d="M10 872v132h166v106q0 174 62 250q78 98 249 98q61 0 158 -14v-174q-74 18 -121 18q-59 0 -96 -18q-33 -18 -47 -47t-14 -97v-122h274v-134h-274v-870h-193v872h-164z" />
<glyph unicode="g" d="M90 498q0 229 156.5 373.5t443.5 144.5q260 0 453 -135v116h186v-938q0 -72 -3 -112.5t-21.5 -101t-57.5 -103.5q-152 -170 -547 -170q-193 0 -323 45q-63 23 -109.5 56.5t-69 63.5t-38 74t-18.5 65.5t-7 60.5l203 8q2 -37 7 -60.5t39 -59.5t99 -58q94 -31 240 -31 q156 0 258 41q57 23 93 54.5t49.5 72.5t16.5 67.5t3 73.5v117q-61 -51 -106.5 -80t-145.5 -60.5t-219 -31.5q-240 0 -411 133t-171 375zM295 500q0 -160 116.5 -253t299.5 -93q195 0 311.5 105.5t116.5 252.5q0 170 -131 261q-125 87 -291 87h-15q-174 -4 -290.5 -99 t-116.5 -261z" />
<glyph unicode="h" d="M158 0v1446h196v-555q178 139 447 139q276 0 420 -151q47 -51 71.5 -114t27.5 -101.5t5 -116.5v-547h-195v512q0 145 -36 211q-45 74 -134.5 108.5t-187.5 34.5q-164 0 -280 -75q-84 -53 -140 -144v-647h-194z" />
<glyph unicode="i" horiz-adv-x="512" d="M156 1167v197h192v-197h-192zM158 0v999h194v-999h-194z" />
<glyph unicode="j" horiz-adv-x="512" d="M-152 -211q88 -27 144 -27q168 0 168 177v1060h194v-1046q0 -178 -57 -254q-80 -113 -274 -113q-61 0 -175 23v180zM158 1165v197h194v-197h-194z" />
<glyph unicode="k" horiz-adv-x="1409" d="M160 0v1446h196v-965l627 516h303l-502 -391l660 -606h-287l-526 483l-275 -211v-272h-196z" />
<glyph unicode="l" horiz-adv-x="512" d="M158 0v1446h192v-1446h-192z" />
<glyph unicode="m" horiz-adv-x="2390" d="M158 0v995h196v-131q37 33 56 47q154 111 385 111q98 0 175 -17.5t126 -52t71.5 -55t49.5 -55.5q35 33 60.5 53t86.5 56t147 54.5t193 18.5q238 0 381 -115q63 -51 96 -120.5t37 -116.5t4 -131v-541h-197v506q0 156 -40 219q-10 18 -32 42t-96.5 57.5t-170.5 33.5 q-137 0 -242 -57q-53 -29 -87 -62.5t-47.5 -74.5t-16.5 -68t-5 -74v-522h-196v514q0 61 -4.5 98t-27 89.5t-65.5 86.5q-86 70 -233 70q-207 0 -332 -121q-49 -49 -62.5 -99t-13.5 -128v-510h-196z" />
<glyph unicode="n" d="M160 0v999h194v-120q82 70 166 102q127 49 279 49q309 0 450 -176q51 -66 65.5 -137.5t14.5 -175.5v-541h-192v528q-2 59 -5.5 92t-26 80.5t-65.5 81.5q-98 80 -274 80q-121 0 -221 -43q-53 -25 -91 -59.5t-57.5 -66t-30 -77t-11.5 -72t-1 -69.5v-475h-194z" />
<glyph unicode="o" d="M92 481q0 244 182.5 392.5t466.5 150.5h2h9q273 0 458 -135q188 -137 189 -393q0 -246 -186.5 -386.5t-464.5 -140.5q-307 0 -481.5 143.5t-174.5 368.5zM289 494q0 -160 130 -261.5t339 -101.5q182 0 313 100.5t131 264.5q0 170 -133 271q-128 97 -320 97h-16 q-209 -2 -326.5 -109t-117.5 -261z" />
<glyph unicode="p" d="M158 -401v1400h194v-106q182 131 432 131q262 0 437.5 -140.5t175.5 -375.5q0 -219 -152.5 -372.5t-421.5 -153.5q-158 0 -295 47q-102 37 -176 110v-540h-194zM342 496q0 -104 46 -180t118 -112t137.5 -51.5t128.5 -15.5q190 0 302 104.5t112 270.5q0 154 -114 256 t-306 102q-176 0 -300 -92t-124 -282z" />
<glyph unicode="q" d="M90 485q0 172 92 298t229.5 182.5t295.5 56.5q240 0 426 -137v114h194v-1400h-192v503q-53 -37 -91 -58t-132.5 -48t-206.5 -27q-264 0 -439.5 138t-175.5 378zM297 496q0 -158 114.5 -266.5t319.5 -108.5q180 0 299 101.5t119 277.5q0 178 -127 274q-122 92 -293 92h-14 q-193 -4 -305.5 -109t-112.5 -261z" />
<glyph unicode="r" horiz-adv-x="854" d="M160 0v999h194v-112q147 141 385 141q45 0 117 -14v-193q-88 25 -154 25q-102 0 -176 -27q-59 -23 -97 -57.5t-52.5 -78.5t-17.5 -71.5t-3 -68.5v-543h-196z" />
<glyph unicode="s" horiz-adv-x="1366" d="M37 172l168 111q201 -156 502 -156q154 0 245 33q113 41 113 129q0 96 -158 121q-31 4 -201.5 18t-201.5 18q-373 33 -373 275q0 102 58.5 171t156.5 97.5t176 38.5t164 10q162 0 298 -40t192.5 -75.5t91.5 -70.5l-170 -94q-170 117 -426 116q-152 0 -228 -30 q-98 -37 -98 -107q0 -33 20.5 -56.5t63.5 -35.5t76 -17t92 -12q55 -6 155.5 -14t139.5 -12q96 -6 160 -23q219 -57 219 -266q0 -121 -82 -199.5t-201 -108.5t-268 -30q-455 0 -684 209z" />
<glyph unicode="t" horiz-adv-x="681" d="M14 866v135h172v342h193v-342h280v-135h-282l-2 -536q2 -51 4 -71.5t13 -50.5t41 -41t79 -11q55 0 141 16v-172q-147 -14 -192 -14q-80 0 -134.5 17t-81 38.5t-41 68t-16.5 75t-2 89.5v594z" />
<glyph unicode="u" d="M154 473v526h192v-505q0 -96 11.5 -153.5t52.5 -100.5q94 -102 305 -103q150 0 247 54.5t132 111.5q35 55 34 168v528h195v-999h-190v125q-41 -35 -70 -55.5t-84 -48t-127 -42t-160 -14.5q-174 0 -305 58q-57 25 -98 56.5t-65.5 71t-40 73.5t-21.5 84t-7 80t-1 85z" />
<glyph unicode="v" horiz-adv-x="1236" d="M-2 999h215l397 -802l404 802h219l-514 -999h-217z" />
<glyph unicode="w" horiz-adv-x="1835" d="M-2 999h211l250 -700q23 -61 33 -115q16 63 32 109l248 706h242l268 -723q12 -35 29 -98q14 59 37 121l268 700h211l-406 -999h-221l-307 809l-291 -809h-221z" />
<glyph unicode="x" horiz-adv-x="1280" d="M-4 0l512 526l-455 473h271l319 -350l326 350h262l-453 -471l506 -528h-274l-363 406l-379 -406h-272z" />
<glyph unicode="y" horiz-adv-x="1236" d="M0 1001h221l391 -806l406 806h217l-565 -1097q-31 -59 -54.5 -94t-66.5 -77t-104.5 -61.5t-145.5 -19.5q-74 0 -238 24v174q147 -29 205 -28q96 0 145.5 42t96.5 130z" />
<glyph unicode="z" horiz-adv-x="1236" d="M49 0v162l825 676h-761v161h1036v-151l-823 -676h862v-172h-1139z" />
<glyph unicode="{" horiz-adv-x="724" d="M139 500v63q49 10 79 34t42 67t15.5 80.5t3.5 111.5v221q2 96 4 138t20.5 100.5t52.5 99.5q47 51 102.5 64.5t215.5 23.5v-69q-72 -16 -107 -43q-41 -29 -61.5 -73t-23.5 -70.5t-5 -78.5v-172q0 -100 -1 -143t-6 -105.5t-14.5 -87t-27.5 -56.5t-46 -47t-69 -30 q41 -14 69 -30.5t46 -46t28.5 -53t15.5 -77t6 -89t1 -119.5v-150q0 -135 16.5 -186t50.5 -84t57.5 -43t70.5 -27v-69q-156 8 -218.5 24t-107.5 69.5t-56 118t-11 166.5v137v106q0 30 -1 70t-3.5 64.5t-8.5 48.5q-14 76 -55 109t-74 33z" />
<glyph unicode="|" horiz-adv-x="468" d="M174 -512v2048h123v-2048h-123z" />
<glyph unicode="}" horiz-adv-x="724" d="M51 -377q47 16 70.5 26.5t57.5 43.5t50.5 84t16.5 186v150q0 84 1 119.5t6 89t15.5 77t28.5 53t46 46t69 30.5q-41 14 -69 29.5t-46 47.5t-27.5 56.5t-14.5 87t-6 105.5t-1 143v172q-2 51 -5 78t-23.5 71t-61.5 73q-35 27 -107 43v69q160 -10 215.5 -23.5t102.5 -64.5 q35 -41 53 -99.5t20 -100t4 -138.5v-221q0 -74 3.5 -111.5t15.5 -80.5t42 -67t79 -34v-63q-33 0 -74 -33t-55 -109q-6 -25 -8.5 -49t-3.5 -64t-1 -70v-106v-137q0 -68 -3 -107.5t-18 -89.5t-46 -87q-45 -53 -107.5 -69.5t-218.5 -24.5v69z" />
<glyph unicode="~" d="M254 592q115 172 272 172q84 0 228 -68q160 -74 211 -73q100 0 196 127l78 -146q-127 -164 -281 -164q-63 0 -206 66q-156 78 -222 78q-37 0 -73 -17q-25 -12 -42.5 -30.5t-78.5 -90.5z" />
<glyph unicode="&#xa1;" horiz-adv-x="598" d="M143 1208v205h207v-205h-207zM145 0v606l58 441h88l59 -437v-610h-205z" />
<glyph unicode="&#xa2;" horiz-adv-x="1409" d="M88 498q0 213 145.5 356t444.5 170v184h145v-182q203 -20 320 -89t203 -214l-189 -53q-51 88 -125 134t-209 66v-747q117 10 213 63q37 20 63.5 45t37 39.5t30.5 44.5l187 -49q-39 -70 -82 -116q-66 -70 -158 -111t-147.5 -51.5t-143.5 -18.5v-215h-145v213q-8 0 -23.5 1 t-23.5 1q-240 18 -391.5 158t-151.5 371zM293 496q0 -141 98 -246t287 -127v747q-68 -10 -109 -24q-145 -47 -210.5 -144t-65.5 -206z" />
<glyph unicode="&#xa3;" d="M61 205q0 100 73 167.5t204 67.5q121 0 280 -73q0 104 -28 168q-23 41 -96 124h-367v140h254q-113 139 -113 270q0 139 88 242q143 174 467 174q299 0 463 -170q100 -109 123 -293l-197 -47q-10 139 -75 217q-109 129 -318 129q-154 0 -248 -72.5t-94 -183.5 q0 -90 90 -193q10 -12 36 -40.5t30 -32.5h428v-140h-328q72 -139 72 -245q0 -61 -23 -138q127 -74 180.5 -96t110.5 -22q66 0 108 31.5t56 90t18.5 96.5t1.5 93h193q-2 -84 -5 -133t-22.5 -112.5t-56.5 -112.5q-102 -133 -276 -134q-72 0 -147 26t-118 50.5t-114 69.5 q-55 -57 -113 -90q-111 -59 -250 -60q-145 0 -216 69t-71 163zM221 211q0 -43 41 -68.5t98 -25.5q113 0 211 102q-123 76 -231 76q-59 0 -89 -24.5t-30 -59.5z" />
<glyph unicode="&#xa4;" horiz-adv-x="1366" d="M86 223l156 156q-104 147 -105 317q0 172 105 318l-154 153l123 123l154 -153q145 104 319 104q172 0 315 -104l156 153l123 -123l-154 -153q102 -147 103 -318q0 -168 -105 -319l156 -156l-125 -125l-154 158q-152 -102 -315 -102q-174 0 -319 104l-156 -156zM301 696 q0 -166 112.5 -275.5t272.5 -109.5t267.5 109.5t109.5 275.5q2 168 -111.5 276.5t-269.5 108.5t-268.5 -107.5t-112.5 -277.5z" />
<glyph unicode="&#xa5;" horiz-adv-x="1662" d="M4 1434h264l568 -713l563 713h262l-524 -629h311v-150h-436l-84 -102v-18l520 -7v-149h-520v-379h-203v379h-518v149h518v29l-80 98h-438v150h315z" />
<glyph unicode="&#xa6;" horiz-adv-x="468" d="M154 -358v716h163v-716h-163zM154 666v716h163v-716h-163z" />
<glyph unicode="&#xa7;" horiz-adv-x="1622" d="M113 621q0 70 20 127q51 143 213 243q-76 76 -76 180q0 145 143.5 230.5t381.5 85.5q360 0 635 -184l-121 -160q-227 156 -535 155q-279 0 -278 -133q0 -33 24 -59q45 -47 219 -88q49 -14 168 -41t180 -45q416 -106 416 -410q0 -221 -223 -356q57 -86 57 -176 q0 -160 -139 -256t-393 -96q-147 0 -295 35.5t-220.5 67.5t-172.5 83l147 166q92 -61 193 -96q172 -63 356 -64q94 0 158.5 17.5t90 45t34 48t8.5 41.5q0 66 -64 108q-49 31 -323 90q-76 16 -118 25.5t-114.5 31t-116.5 42t-98.5 55.5t-84 73.5t-51 93t-21.5 120.5zM322 651 q0 -55 24.5 -96t71.5 -67.5t88 -42t102 -29.5q25 -6 197 -45t207 -47q63 -18 135 -52q43 29 69.5 51.5t55 72.5t28.5 110q0 49 -22.5 88t-51 63.5t-89 47t-101.5 34t-123 29.5q-322 78 -424 127q-47 -31 -74.5 -54.5t-60 -77t-32.5 -112.5z" />
<glyph unicode="&#xa8;" horiz-adv-x="768" d="M14 1165v211h199v-211h-199zM553 1165v211h199v-211h-199z" />
<glyph unicode="&#xa9;" horiz-adv-x="1705" d="M123 723q0 309 215 519t514 210q313 0 523 -215t208 -518t-212 -514t-519 -211q-295 0 -512 207t-217 522zM188 723q0 -279 195 -471.5t469 -192.5q281 0 472.5 192.5t193.5 467.5q2 276 -188.5 471.5t-473.5 195.5q-281 0 -474.5 -194.5t-193.5 -468.5zM383 723 q0 209 137 348t348 139q233 0 387 -184l-114 -106q-125 137 -273 137q-139 0 -232 -94.5t-93 -237.5t95 -236.5t232 -93.5q156 0 271 133l114 -100q-152 -186 -389 -186q-209 0 -346 136t-137 345z" />
<glyph unicode="&#xaa;" horiz-adv-x="980" d="M55 954q0 102 66 156q63 57 225 64h367q0 51 -4 73.5t-24.5 51t-72 39t-137.5 10.5q-193 0 -231 -93l-146 15q14 49 35 76q74 113 328 112q127 0 210 -19.5t119.5 -56t49 -70.5t12.5 -81v-326q0 -23 2 -36t18.5 -27.5t47.5 -14.5q29 0 59 7v-107q-74 -8 -117 -8 q-41 0 -68.5 9t-43 29.5t-20.5 34t-13 39.5q-131 -125 -338 -124q-145 0 -234.5 64t-89.5 183zM203 952q8 -127 192 -133q147 0 234 64q82 57 86 186q-55 -8 -275 -8q-145 0 -188 -27q-49 -25 -49 -82z" />
<glyph unicode="&#xab;" horiz-adv-x="1024" d="M90 436v174l416 326v-133l-262 -281l262 -280v-131zM502 436v176l416 324v-129l-263 -285l263 -280v-129z" />
<glyph unicode="&#xac;" horiz-adv-x="1366" d="M0 518v162h1202h164v-678h-164v516h-1202z" />
<glyph unicode="&#xad;" horiz-adv-x="854" d="M121 432v146h645v-146h-645z" />
<glyph unicode="&#xae;" horiz-adv-x="1705" d="M125 721q0 311 214 521t513 210q313 0 523 -215t208 -518t-213 -514t-518 -211q-293 0 -510 207t-217 520zM190 720.5q0 -276.5 195 -469t469 -192.5q279 0 470.5 191.5t193.5 468t-189.5 472t-472.5 195.5t-473.5 -194.5t-192.5 -471zM545 268v920h299q152 0 215 -23 q72 -25 109.5 -84t37.5 -129q0 -170 -188 -219q59 -27 88 -65.5t43 -126.5q16 -115 28.5 -165t41.5 -108h-187q-20 37 -37 127q-2 10 -11 70.5t-11 71.5q-18 100 -69.5 121.5t-194.5 21.5v-412h-164zM711 811h135q39 0 61.5 2t59.5 12.5t56 39t19 73.5q0 39 -16 63 q-23 41 -61.5 50.5t-149.5 9.5h-104v-250z" />
<glyph unicode="&#xaf;" horiz-adv-x="768" d="M14 1165v158h738v-158h-738z" />
<glyph unicode="&#xb0;" horiz-adv-x="724" d="M33 1214.5q0 137.5 97 234.5t234.5 97t233.5 -97t96 -234.5t-96 -233.5t-233.5 -96t-234.5 96t-97 233.5zM203 1219q0 -66 47 -114t114.5 -48t114.5 48t47 114q0 68 -47 115.5t-114.5 47.5t-114.5 -47.5t-47 -115.5z" />
<glyph unicode="&#xb1;" horiz-adv-x="1366" d="M84 0v162h1198v-162h-1198zM84 772v162h520v496h164v-496h514v-162h-514v-498h-164v498h-520z" />
<glyph unicode="&#xb2;" horiz-adv-x="937" d="M80 1067q2 51 6 80t26.5 79t61.5 89q106 100 279 100q178 0 272 -95t94 -216q0 -152 -153 -277q-137 -104 -322 -184q-8 -4 -59 -25q29 4 41 5q29 4 43 4h473v-123h-746v141q123 53 273 137q170 100 237.5 165t67.5 157q0 82 -62.5 138t-159 56t-161.5 -55 q-35 -29 -51.5 -66.5t-18.5 -63.5t0 -66z" />
<glyph unicode="&#xb3;" horiz-adv-x="937" d="M61 772l138 33q10 -106 94 -152q74 -41 186 -41q225 0 226 160q0 43 -14.5 71.5t-42 43t-40 18.5t-35.5 8q-55 8 -217 9v112h162q158 10 158 123q0 66 -63.5 106t-149.5 40q-88 0 -150 -39q-76 -45 -80 -148l-137 29q8 41 16.5 65.5t34 68.5t61.5 70.5t102.5 48 t154.5 21.5q158 0 258 -70.5t100 -187.5q0 -57 -29.5 -101t-72.5 -65q-4 0 -13.5 -4t-13.5 -4l25 -8q53 -20 94 -77.5t41 -137.5q0 -66 -31 -117q-80 -156 -348 -155q-100 0 -177 22.5t-118 51t-68.5 74.5t-35 70.5t-15.5 61.5z" />
<glyph unicode="&#xb4;" horiz-adv-x="768" d="M184 1128l144 283h256l-265 -283h-135z" />
<glyph unicode="&#xb5;" d="M154 -401v1398h192v-503q2 -68 4 -102t16.5 -78t43.5 -74q94 -102 305 -103q195 0 319 103q61 49 77.5 100t16.5 131v526h195v-997h-190v125q-55 -45 -93.5 -71.5t-129.5 -57.5t-195 -31q-86 0 -178 23q-57 12 -92 28.5t-99 57.5v-475h-192z" />
<glyph unicode="&#xb6;" horiz-adv-x="1366" d="M178 1036q0 193 129 305q51 47 119 72t105.5 28t101.5 5h471v-111h-70v-1675h-119v1675h-297v-1675h-116v993q-113 18 -183 74q-141 108 -141 309z" />
<glyph unicode="&#xb7;" horiz-adv-x="512" d="M141 385v223h226v-223h-226z" />
<glyph unicode="&#xb8;" horiz-adv-x="768" d="M160 -426l39 96q78 -16 118 -16q119 0 119 76q0 68 -127 67q-10 0 -28.5 -1t-26.5 -1l88 223h115l-51 -129q82 -4 124 -26q78 -43 78 -127q0 -74 -64.5 -128t-195.5 -54q-61 0 -188 20z" />
<glyph unicode="&#xb9;" horiz-adv-x="937" d="M190 1161v101q106 0 177 36q31 16 53 39t30.5 35t22.5 39h109v-907h-144v692q-82 -35 -248 -35z" />
<glyph unicode="&#xba;" horiz-adv-x="1024" d="M59 1077q0 152 111 262.5t322 118.5q225 8 345.5 -103.5t120.5 -269.5q0 -168 -123.5 -270t-318.5 -102q-227 0 -342 109.5t-115 254.5zM207 1081q0 -94 74.5 -169.5t234.5 -75.5q145 0 221 73.5t76 180.5q0 117 -90 186.5t-231 60.5q-143 -6 -214 -82t-71 -174z" />
<glyph unicode="&#xbb;" horiz-adv-x="1024" d="M104 106v132l265 284l-265 281v131l414 -328v-170zM516 109v131l262 282l-262 281v133l414 -326v-176z" />
<glyph unicode="&#xbc;" horiz-adv-x="2134" d="M190 1161v101q106 0 177 36q31 16 53 39t30.5 35t22.5 39h109v-907h-144v692q-82 -35 -248 -35zM571 37l885 1399l100 -64l-884 -1397zM1241 213v117l547 575h110v-571h177v-121h-177v-213h-135v213h-522zM1403 332h360v289q0 18 4.5 59t8.5 59q0 -6 -37 -53z" />
<glyph unicode="&#xbd;" horiz-adv-x="2134" d="M190 1161v101q106 0 177 36q31 16 53 39t30.5 35t22.5 39h109v-907h-144v692q-82 -35 -248 -35zM481 37l885 1399l98 -64l-884 -1397zM1276 563q2 51 6 80t26.5 79t61.5 89q106 100 279 100q176 0 270 -95t94 -216q0 -152 -153 -276q-143 -109 -322 -185q-10 -6 -57 -24 q29 4 41 4q29 4 43 4h471v-123h-744v141q125 53 271 138q170 98 237.5 163.5t67.5 157.5q0 82 -62.5 138.5t-158.5 56.5q-94 0 -160 -56q-35 -29 -51.5 -66.5t-18.5 -63t0 -66.5z" />
<glyph unicode="&#xbe;" horiz-adv-x="2134" d="M61 772l138 33q10 -106 94 -152q74 -41 186 -41q225 0 226 160q0 43 -14.5 71.5t-42 43t-40 18.5t-35.5 8q-55 8 -217 9v112h162q158 10 158 123q0 66 -63.5 106t-149.5 40q-88 0 -150 -39q-76 -45 -80 -148l-137 29q8 41 16.5 65.5t34 68.5t61.5 70.5t102.5 48 t154.5 21.5q158 0 258 -70.5t100 -187.5q0 -57 -29.5 -101t-72.5 -65q-4 0 -13.5 -4t-13.5 -4l25 -8q53 -20 94 -77.5t41 -137.5q0 -66 -31 -117q-80 -156 -348 -155q-100 0 -177 22.5t-118 51t-68.5 74.5t-35 70.5t-15.5 61.5zM662 37l884 1397l101 -62l-885 -1397z M1241 213v117l547 575h110v-571h177v-121h-177v-213h-135v213h-522zM1403 332h360v289q0 18 4.5 59t8.5 59q0 -2 -15.5 -24.5t-21.5 -28.5z" />
<glyph unicode="&#xbf;" horiz-adv-x="1366" d="M57 414q0 68 23.5 124t52.5 92t83 70.5t88 50t95 40.5q92 39 134 59t69 55t32 68t5 104h152q0 -186 -28 -250.5t-163 -121.5q-10 -4 -65.5 -29t-83.5 -37q-35 -16 -56.5 -29.5t-56.5 -42t-53.5 -70.5t-18.5 -96q0 -131 109.5 -205.5t253.5 -74.5q186 0 307 117 q74 74 108 211l181 -35q-41 -170 -138 -273q-164 -176 -466 -176q-250 0 -407 131.5t-157 317.5zM614 1241v205h207v-205h-207z" />
<glyph unicode="&#xc0;" horiz-adv-x="1705" d="M0 0l748 1448h217l741 -1448h-236l-176 356h-888l-177 -356h-229zM492 524h714l-305 609q-4 12 -16.5 36.5t-16.5 36.5q-12 37 -16 56q-16 -49 -21 -60q-6 -14 -34 -78zM578 1804h256l124 -258h-135z" />
<glyph unicode="&#xc1;" horiz-adv-x="1705" d="M0 0l748 1448h217l741 -1448h-236l-176 356h-888l-177 -356h-229zM492 524h714l-305 609q-4 12 -16.5 36.5t-16.5 36.5q-12 37 -16 56q-16 -49 -21 -60q-6 -14 -34 -78zM752 1540l131 258h258l-256 -258h-133z" />
<glyph unicode="&#xc2;" horiz-adv-x="1705" d="M0 0l748 1448h217l741 -1448h-236l-176 356h-888l-177 -356h-229zM492 524h714l-305 609q-4 12 -16.5 36.5t-16.5 36.5q-12 37 -16 56q-16 -49 -21 -60q-6 -14 -34 -78zM520 1538l221 258h220l223 -256h-168l-164 143l-170 -145h-162z" />
<glyph unicode="&#xc3;" horiz-adv-x="1705" d="M0 0l748 1448h217l741 -1448h-236l-176 356h-888l-177 -356h-229zM471 1657q53 41 78.5 60.5t76 43t91.5 23.5q51 0 146 -37t136 -43q10 -2 31 -2q59 0 148 61l71 -92q-55 -41 -85.5 -60.5t-72.5 -37t-79 -17.5q-51 0 -149.5 37t-141.5 41q-8 2 -27 2q-63 0 -149 -69z M492 524h714l-305 609q-4 12 -16.5 36.5t-16.5 36.5q-12 37 -16 56q-16 -49 -21 -60q-6 -14 -34 -78z" />
<glyph unicode="&#xc4;" horiz-adv-x="1705" d="M0 0l748 1448h217l741 -1448h-236l-176 356h-888l-177 -356h-229zM471 1585v211h199v-211h-199zM492 524h714l-305 609q-4 12 -16.5 36.5t-16.5 36.5q-12 37 -16 56q-16 -49 -21 -60q-6 -14 -34 -78zM1010 1583v211h198v-211h-198z" />
<glyph unicode="&#xc5;" horiz-adv-x="1705" d="M0 0l748 1448h217l741 -1448h-236l-176 356h-888l-177 -356h-229zM492 524h714l-305 609q-4 12 -16.5 36.5t-16.5 36.5q-12 37 -16 56q-16 -49 -21 -60q-6 -14 -34 -78zM608 1712q0 88 68.5 138.5t171.5 52.5q106 0 170.5 -55.5t64.5 -139.5q0 -82 -63.5 -138.5 t-169.5 -56.5q-121 0 -181.5 59.5t-60.5 139.5zM731 1708q0 -41 34 -68.5t83 -27.5q51 0 82 28.5t31 67.5q0 41 -32 70.5t-85 27.5q-55 -2 -84 -31.5t-29 -66.5z" />
<glyph unicode="&#xc6;" horiz-adv-x="2304" d="M2 0l993 1446h1233v-176h-950v-434h893v-168h-893v-488h963v-180h-1168v348h-602l-231 -348h-238zM582 516h493v737z" />
<glyph unicode="&#xc7;" horiz-adv-x="1878" d="M100 733q0 367 269 574q227 182 604 182q334 0 551 -135q147 -92 264 -283l-221 -49q-25 41 -37 60.5t-46 55.5t-75 62q-164 109 -428 109q-133 0 -249 -33t-211 -98.5t-149.5 -179t-54.5 -261.5q0 -115 35 -215t111 -188t214 -139.5t324 -51.5q121 0 221.5 25t159 54.5 t109.5 78.5t68.5 74.5t39.5 64.5l218 -45q-33 -59 -56.5 -94t-71 -88t-114 -96t-154.5 -76q-178 -70 -415 -76l-23 -63q111 -4 156 -35q74 -45 73 -135q0 -53 -26 -94q-72 -119 -285 -119q-70 0 -186 22l41 103q96 -18 133 -19q57 0 90 19.5t40 36t7 30.5q0 86 -131 86 q-10 0 -30.5 -1t-37.5 -1l60 172q-461 41 -656 324q-131 190 -131 442z" />
<glyph unicode="&#xc8;" horiz-adv-x="1622" d="M174 0v1446h1335v-178h-1130v-432h1100v-170h-1100v-488h1182v-178h-1387zM565 1804h256l125 -258h-135z" />
<glyph unicode="&#xc9;" horiz-adv-x="1622" d="M174 0v1446h1335v-178h-1130v-432h1100v-170h-1100v-488h1182v-178h-1387zM729 1540l131 258h258l-256 -258h-133z" />
<glyph unicode="&#xca;" horiz-adv-x="1622" d="M174 0v1446h1335v-178h-1130v-432h1100v-170h-1100v-488h1182v-178h-1387zM520 1538l221 258h220l223 -256h-168l-164 143l-170 -145h-162z" />
<glyph unicode="&#xcb;" horiz-adv-x="1622" d="M174 0v1446h1335v-178h-1130v-432h1100v-170h-1100v-488h1182v-178h-1387zM469 1585v211h199v-211h-199zM1008 1583v211h198v-211h-198z" />
<glyph unicode="&#xcc;" horiz-adv-x="555" d="M0 1804h256l125 -258h-135zM172 0v1446h209v-1446h-209z" />
<glyph unicode="&#xcd;" horiz-adv-x="555" d="M172 0v1446h209v-1446h-209zM174 1540l131 258h258l-256 -258h-133z" />
<glyph unicode="&#xce;" horiz-adv-x="555" d="M-57 1538l221 258h219l223 -256h-168l-164 143l-170 -145h-161zM172 0v1446h209v-1446h-209z" />
<glyph unicode="&#xcf;" horiz-adv-x="555" d="M-109 1585v211h199v-211h-199zM172 0v1446h209v-1446h-209zM430 1583v211h199v-211h-199z" />
<glyph unicode="&#xd0;" horiz-adv-x="1792" d="M0 700v142h174v604h719q82 0 133 -3t129 -17.5t150.5 -49.5t140.5 -90q96 -80 168 -218t72 -335q0 -319 -203 -526q-72 -72 -159 -116t-195.5 -62.5t-180 -22.5t-194.5 -6h-580v700h-174zM381 174h422q92 2 147.5 6t139.5 21.5t151.5 61.5t122.5 114q113 143 113 362 q0 248 -152 400q-63 63 -148 95t-136.5 36t-145.5 6h-514v-434h666v-142h-666v-526z" />
<glyph unicode="&#xd1;" horiz-adv-x="1878" d="M174 0v1446h211l975 -1034q78 -82 153 -176q-10 96 -12 213v997h197v-1446h-201l-1024 1083q-51 57 -113 134q10 -125 11 -250v-967h-197zM555 1657q53 41 78.5 60.5t76 43t91.5 23.5q51 0 146 -37t136 -43q10 -2 31 -2q57 0 148 61l71 -92q-55 -41 -85.5 -60.5 t-72.5 -37t-79 -17.5q-51 0 -149.5 37t-141.5 41q-8 2 -27 2q-63 0 -149 -69z" />
<glyph unicode="&#xd2;" horiz-adv-x="1961" d="M98 705q0 193 75 345t201 244t278.5 139.5t318.5 47.5q387 -2 635.5 -214t248.5 -565q0 -180 -70.5 -323t-191 -233.5t-276.5 -137.5t-332 -47q-369 0 -594 160q-293 203 -293 584zM303 717q0 -225 127 -369q178 -209 555 -209q154 0 273.5 38t191.5 96.5t118 138.5 t63.5 155.5t17.5 155.5q0 279 -198 434.5t-503 147.5q-121 -4 -229.5 -37t-204.5 -98.5t-153.5 -182t-57.5 -270.5zM705 1804h256l124 -258h-135z" />
<glyph unicode="&#xd3;" horiz-adv-x="1961" d="M98 705q0 193 75 345t201 244t278.5 139.5t318.5 47.5q387 -2 635.5 -214t248.5 -565q0 -180 -70.5 -323t-191 -233.5t-276.5 -137.5t-332 -47q-369 0 -594 160q-293 203 -293 584zM303 717q0 -225 127 -369q178 -209 555 -209q154 0 273.5 38t191.5 96.5t118 138.5 t63.5 155.5t17.5 155.5q0 279 -198 434.5t-503 147.5q-121 -4 -229.5 -37t-204.5 -98.5t-153.5 -182t-57.5 -270.5zM879 1540l131 258h258l-256 -258h-133z" />
<glyph unicode="&#xd4;" horiz-adv-x="1961" d="M98 705q0 193 75 345t201 244t278.5 139.5t318.5 47.5q387 -2 635.5 -214t248.5 -565q0 -180 -70.5 -323t-191 -233.5t-276.5 -137.5t-332 -47q-369 0 -594 160q-293 203 -293 584zM303 717q0 -225 127 -369q178 -209 555 -209q154 0 273.5 38t191.5 96.5t118 138.5 t63.5 155.5t17.5 155.5q0 279 -198 434.5t-503 147.5q-121 -4 -229.5 -37t-204.5 -98.5t-153.5 -182t-57.5 -270.5zM647 1538l221 258h219l224 -256h-168l-164 143l-170 -145h-162z" />
<glyph unicode="&#xd5;" horiz-adv-x="1961" d="M98 705q0 193 75 345t201 244t278.5 139.5t318.5 47.5q387 -2 635.5 -214t248.5 -565q0 -180 -70.5 -323t-191 -233.5t-276.5 -137.5t-332 -47q-369 0 -594 160q-293 203 -293 584zM303 717q0 -225 127 -369q178 -209 555 -209q154 0 273.5 38t191.5 96.5t118 138.5 t63.5 155.5t17.5 155.5q0 279 -198 434.5t-503 147.5q-121 -4 -229.5 -37t-204.5 -98.5t-153.5 -182t-57.5 -270.5zM598 1657q53 41 78.5 60.5t76 43t91.5 23.5q51 0 146 -37t136 -43q10 -2 31 -2q59 0 148 61l71 -92q-55 -41 -85.5 -60.5t-72.5 -37t-79 -17.5 q-51 0 -149.5 37t-141.5 41q-8 2 -27 2q-63 0 -149 -69z" />
<glyph unicode="&#xd6;" horiz-adv-x="1961" d="M98 705q0 193 75 345t201 244t278.5 139.5t318.5 47.5q387 -2 635.5 -214t248.5 -565q0 -180 -70.5 -323t-191 -233.5t-276.5 -137.5t-332 -47q-369 0 -594 160q-293 203 -293 584zM303 717q0 -225 127 -369q178 -209 555 -209q154 0 273.5 38t191.5 96.5t118 138.5 t63.5 155.5t17.5 155.5q0 279 -198 434.5t-503 147.5q-121 -4 -229.5 -37t-204.5 -98.5t-153.5 -182t-57.5 -270.5zM594 1581v211h199v-211h-199zM1133 1579v211h198v-211h-198z" />
<glyph unicode="&#xd7;" horiz-adv-x="1366" d="M158 188l411 410l-411 412l112 114l414 -411l410 411l114 -114l-409 -412l409 -410l-114 -114l-410 409l-414 -409z" />
<glyph unicode="&#xd8;" horiz-adv-x="2004" d="M104 94l183 142q-180 221 -181 485q0 330 243 546t642 216q262 0 463 -94q78 -37 166 -101l221 174l92 -119l-200 -157q49 -72 75.5 -117t56 -141.5t29.5 -200.5q0 -141 -51 -272t-152.5 -243t-276.5 -179.5t-398 -67.5q-160 0 -292 33t-188.5 61.5t-129.5 77.5 l-209 -164zM307 723q0 -219 129 -369l1039 820q-197 137 -476 137q-307 0 -499.5 -154.5t-192.5 -433.5zM555 256q182 -121 444 -121q131 0 248 31t221.5 96.5t166 184t61.5 278.5q0 139 -49 244q-23 49 -62 100z" />
<glyph unicode="&#xd9;" horiz-adv-x="1835" d="M172 596v850h207v-858q2 -139 28.5 -215t114.5 -131q150 -98 398 -99q205 0 342 64q66 31 106.5 70.5t57 95t19.5 91.5t3 97v885h207v-868q0 -61 -2 -95t-14.5 -96.5t-34 -106.5t-65.5 -96.5t-105 -93.5q-190 -125 -516 -125q-334 0 -535 139q-59 41 -100 91.5 t-61.5 93.5t-33 105.5t-14.5 99t-2 102.5zM641 1804h256l125 -258h-135z" />
<glyph unicode="&#xda;" horiz-adv-x="1835" d="M172 596v850h207v-858q2 -139 28.5 -215t114.5 -131q150 -98 398 -99q205 0 342 64q66 31 106.5 70.5t57 95t19.5 91.5t3 97v885h207v-868q0 -61 -2 -95t-14.5 -96.5t-34 -106.5t-65.5 -96.5t-105 -93.5q-190 -125 -516 -125q-334 0 -535 139q-59 41 -100 91.5 t-61.5 93.5t-33 105.5t-14.5 99t-2 102.5zM815 1540l131 258h258l-256 -258h-133z" />
<glyph unicode="&#xdb;" horiz-adv-x="1835" d="M172 596v850h207v-858q2 -139 28.5 -215t114.5 -131q150 -98 398 -99q205 0 342 64q66 31 106.5 70.5t57 95t19.5 91.5t3 97v885h207v-868q0 -61 -2 -95t-14.5 -96.5t-34 -106.5t-65.5 -96.5t-105 -93.5q-190 -125 -516 -125q-334 0 -535 139q-59 41 -100 91.5 t-61.5 93.5t-33 105.5t-14.5 99t-2 102.5zM584 1538l221 258h219l223 -256h-168l-164 143l-170 -145h-161z" />
<glyph unicode="&#xdc;" horiz-adv-x="1835" d="M172 596v850h207v-858q2 -139 28.5 -215t114.5 -131q150 -98 398 -99q205 0 342 64q66 31 106.5 70.5t57 95t19.5 91.5t3 97v885h207v-868q0 -61 -2 -95t-14.5 -96.5t-34 -106.5t-65.5 -96.5t-105 -93.5q-190 -125 -516 -125q-334 0 -535 139q-59 41 -100 91.5 t-61.5 93.5t-33 105.5t-14.5 99t-2 102.5zM535 1585v211h198v-211h-198zM1073 1583v211h199v-211h-199z" />
<glyph unicode="&#xdd;" horiz-adv-x="1662" d="M4 1446h264l502 -631q39 -53 57 -98q18 41 56 88l516 641h262l-733 -887v-559h-203v563zM729 1540l131 258h258l-256 -258h-133z" />
<glyph unicode="&#xde;" horiz-adv-x="1662" d="M170 0v1448h207v-242h676q102 -2 155.5 -7t138.5 -32.5t146 -81.5q141 -125 141 -321q0 -145 -75 -250q-45 -61 -104.5 -100t-134.5 -53.5t-123 -18.5t-124 -4h-694v-338h-209zM377 512h667q182 0 259 51q109 70 108 211q0 109 -68 176q-39 39 -100 58.5t-104 22.5 t-117 3h-645v-522z" />
<glyph unicode="&#xdf;" d="M154 0v1006q0 59 2 90.5t14 88t34.5 93.5t71 77t115.5 66q135 53 352 54q563 0 564 -332q0 -178 -158 -236q-14 -6 -47 -14q61 -16 65 -19q109 -37 168.5 -129t59.5 -270q0 -274 -146 -395q-119 -100 -336 -100q-188 0 -295 59q-45 27 -73.5 58.5t-39.5 74.5t-15.5 73.5 t-4.5 84.5h193q0 -33 2 -50.5t14.5 -51t33 -51t63.5 -33t104 -15.5q123 0 190 51q109 78 109 273q0 201 -86 268t-293 67q-53 0 -156 -4v152q217 -4 299 18q139 33 140 170q0 76 -49 119q-82 76 -320 76q-195 0 -287 -68q-59 -41 -75.5 -92t-16.5 -160v-999h-196z" />
<glyph unicode="&#xe0;" horiz-adv-x="1409" d="M80 307q0 98 57.5 177t171.5 110q111 29 434 29h283q0 51 -1 76.5t-10 59.5t-31.5 56.5t-61.5 38.5q-78 35 -226 35q-154 0 -243 -37q-76 -29 -111 -94l-197 18q18 47 30.5 72.5t50.5 65.5t89.5 61.5t146.5 38t222 16.5q172 0 303 -35q63 -18 108.5 -46.5t67 -56.5 t33.5 -72t13 -69.5t1 -70.5v-363q0 -61 2 -86.5t12.5 -54.5t33 -38t63.5 -9l74 6v-133q-127 -12 -172 -12q-61 0 -101.5 14t-57.5 45t-23.5 51.5t-10.5 59.5q-49 -76 -135 -123q-141 -74 -340 -74q-145 0 -246.5 37t-146.5 95.5t-63.5 109.5t-18.5 102zM274 309 q0 -78 72 -137t215 -59q199 0 328 86q139 94 139 274h-364q-215 0 -285 -27q-105 -39 -105 -137zM451 1409h256l137 -281h-133z" />
<glyph unicode="&#xe1;" horiz-adv-x="1409" d="M80 307q0 98 57.5 177t171.5 110q111 29 434 29h283q0 51 -1 76.5t-10 59.5t-31.5 56.5t-61.5 38.5q-78 35 -226 35q-154 0 -243 -37q-76 -29 -111 -94l-197 18q18 47 30.5 72.5t50.5 65.5t89.5 61.5t146.5 38t222 16.5q172 0 303 -35q63 -18 108.5 -46.5t67 -56.5 t33.5 -72t13 -69.5t1 -70.5v-363q0 -61 2 -86.5t12.5 -54.5t33 -38t63.5 -9l74 6v-133q-127 -12 -172 -12q-61 0 -101.5 14t-57.5 45t-23.5 51.5t-10.5 59.5q-49 -76 -135 -123q-141 -74 -340 -74q-145 0 -246.5 37t-146.5 95.5t-63.5 109.5t-18.5 102zM274 309 q0 -78 72 -137t215 -59q199 0 328 86q139 94 139 274h-364q-215 0 -285 -27q-105 -39 -105 -137zM614 1128l144 283h256l-264 -283h-136z" />
<glyph unicode="&#xe2;" horiz-adv-x="1409" d="M80 307q0 98 57.5 177t171.5 110q111 29 434 29h283q0 51 -1 76.5t-10 59.5t-31.5 56.5t-61.5 38.5q-78 35 -226 35q-154 0 -243 -37q-76 -29 -111 -94l-197 18q18 47 30.5 72.5t50.5 65.5t89.5 61.5t146.5 38t222 16.5q172 0 303 -35q63 -18 108.5 -46.5t67 -56.5 t33.5 -72t13 -69.5t1 -70.5v-363q0 -61 2 -86.5t12.5 -54.5t33 -38t63.5 -9l74 6v-133q-127 -12 -172 -12q-61 0 -101.5 14t-57.5 45t-23.5 51.5t-10.5 59.5q-49 -76 -135 -123q-141 -74 -340 -74q-145 0 -246.5 37t-146.5 95.5t-63.5 109.5t-18.5 102zM274 309 q0 -78 72 -137t215 -59q199 0 328 86q139 94 139 274h-364q-215 0 -285 -27q-105 -39 -105 -137zM381 1128l215 283h221l221 -281h-166l-167 156l-156 -158h-168z" />
<glyph unicode="&#xe3;" horiz-adv-x="1409" d="M80 307q0 98 57.5 177t171.5 110q111 29 434 29h283q0 51 -1 76.5t-10 59.5t-31.5 56.5t-61.5 38.5q-78 35 -226 35q-154 0 -243 -37q-76 -29 -111 -94l-197 18q18 47 30.5 72.5t50.5 65.5t89.5 61.5t146.5 38t222 16.5q172 0 303 -35q63 -18 108.5 -46.5t67 -56.5 t33.5 -72t13 -69.5t1 -70.5v-363q0 -61 2 -86.5t12.5 -54.5t33 -38t63.5 -9l74 6v-133q-127 -12 -172 -12q-61 0 -101.5 14t-57.5 45t-23.5 51.5t-10.5 59.5q-49 -76 -135 -123q-141 -74 -340 -74q-145 0 -246.5 37t-146.5 95.5t-63.5 109.5t-18.5 102zM274 309 q0 -78 72 -137t215 -59q199 0 328 86q139 94 139 274h-364q-215 0 -285 -27q-105 -39 -105 -137zM319 1237q82 66 136.5 96.5t111.5 30.5q59 0 166 -43q92 -41 141 -41q57 0 152 61l72 -90q-53 -39 -84 -59.5t-74 -37.5t-80 -17q-51 0 -148.5 35.5t-136.5 41.5q-20 4 -34 5 q-59 0 -148 -72z" />
<glyph unicode="&#xe4;" horiz-adv-x="1409" d="M80 307q0 98 57.5 177t171.5 110q111 29 434 29h283q0 51 -1 76.5t-10 59.5t-31.5 56.5t-61.5 38.5q-78 35 -226 35q-154 0 -243 -37q-76 -29 -111 -94l-197 18q18 47 30.5 72.5t50.5 65.5t89.5 61.5t146.5 38t222 16.5q172 0 303 -35q63 -18 108.5 -46.5t67 -56.5 t33.5 -72t13 -69.5t1 -70.5v-363q0 -61 2 -86.5t12.5 -54.5t33 -38t63.5 -9l74 6v-133q-127 -12 -172 -12q-61 0 -101.5 14t-57.5 45t-23.5 51.5t-10.5 59.5q-49 -76 -135 -123q-141 -74 -340 -74q-145 0 -246.5 37t-146.5 95.5t-63.5 109.5t-18.5 102zM274 309 q0 -78 72 -137t215 -59q199 0 328 86q139 94 139 274h-364q-215 0 -285 -27q-105 -39 -105 -137zM344 1163v211h199v-211h-199zM883 1163v211h198v-211h-198z" />
<glyph unicode="&#xe5;" horiz-adv-x="1409" d="M80 307q0 98 57.5 177t171.5 110q111 29 434 29h283q0 51 -1 76.5t-10 59.5t-31.5 56.5t-61.5 38.5q-78 35 -226 35q-154 0 -243 -37q-76 -29 -111 -94l-197 18q18 47 30.5 72.5t50.5 65.5t89.5 61.5t146.5 38t222 16.5q172 0 303 -35q63 -18 108.5 -46.5t67 -56.5 t33.5 -72t13 -69.5t1 -70.5v-363q0 -61 2 -86.5t12.5 -54.5t33 -38t63.5 -9l74 6v-133q-127 -12 -172 -12q-61 0 -101.5 14t-57.5 45t-23.5 51.5t-10.5 59.5q-49 -76 -135 -123q-141 -74 -340 -74q-145 0 -246.5 37t-146.5 95.5t-63.5 109.5t-18.5 102zM274 309 q0 -78 72 -137t215 -59q199 0 328 86q139 94 139 274h-364q-215 0 -285 -27q-105 -39 -105 -137zM483 1321q0 88 69 139t171 53q106 0 170.5 -55t64.5 -141q0 -82 -63.5 -138.5t-169.5 -56.5q-121 0 -181.5 59.5t-60.5 139.5zM606 1317q0 -41 34 -68.5t83 -27.5 q51 0 82 28.5t31 69.5t-32 70.5t-85 27.5q-55 -2 -84 -31.5t-29 -68.5z" />
<glyph unicode="&#xe6;" horiz-adv-x="2347" d="M82 315q0 135 90 217q63 55 155.5 73t229.5 20h490q0 92 -37 141q-80 113 -340 113q-272 0 -338 -138l-195 23q12 37 23.5 60.5t49.5 66.5t90 68.5t149.5 46t222.5 20.5q80 0 145 -8q143 -14 221 -53t136 -105q33 33 77 66q158 104 377 104q262 0 433 -140t192 -411 h-1016q12 -121 74 -194q55 -70 150 -113t206 -43q131 0 240 61q78 47 135 148l184 -47q-59 -115 -127 -172q-170 -147 -432 -148q-332 0 -520 217q-82 -88 -166 -133q-176 -90 -406 -90q-147 0 -262 39q-98 37 -164.5 117.5t-66.5 193.5zM279 313q0 -195 325 -194 q207 0 320 84q49 35 76.5 86t32.5 86t11 104h-315q-217 0 -274 -6q-176 -21 -176 -160zM1243 625h780q-27 98 -116.5 176t-261.5 78q-188 0 -299 -97q-62 -55 -103 -157z" />
<glyph unicode="&#xe7;" horiz-adv-x="1409" d="M88 504q0 246 187.5 385t478.5 139q240 0 403 -102q104 -66 189 -203l-189 -53q-41 78 -113 125q-123 78 -290 77q-188 0 -323.5 -101t-135.5 -282q0 -170 131 -270t328 -100q170 0 295 74q68 39 120 120l185 -47q-25 -43 -41.5 -67.5t-54 -61.5t-89.5 -69 q-139 -86 -376 -101l-33 -80q82 -4 125 -26q78 -43 78 -127q0 -74 -66 -128.5t-195 -54.5q-66 0 -188 21l39 96q78 -16 117 -16q121 0 121 76q0 68 -127 67q-37 0 -56 -2l68 174q-348 20 -494 228q-94 121 -94 309z" />
<glyph unicode="&#xe8;" horiz-adv-x="1409" d="M92 506q0 236 166 381t440 145q272 0 442.5 -156.5t176.5 -398.5h-1026q16 -127 74 -196q57 -72 155 -114t209 -42q147 0 258 74q33 23 57.5 49t36 42.5t29.5 51.5l186 -51q-25 -47 -39 -71.5t-48.5 -62.5t-82.5 -71q-172 -117 -421 -117q-256 0 -434.5 139.5 t-178.5 397.5zM297 623h801q-16 41 -32.5 70.5t-59.5 81.5t-119 82t-176 30q-301 0 -414 -264zM451 1409h256l137 -281h-133z" />
<glyph unicode="&#xe9;" horiz-adv-x="1409" d="M92 506q0 236 166 381t440 145q272 0 442.5 -156.5t176.5 -398.5h-1026q16 -127 74 -196q57 -72 155 -114t209 -42q147 0 258 74q33 23 57.5 49t36 42.5t29.5 51.5l186 -51q-25 -47 -39 -71.5t-48.5 -62.5t-82.5 -71q-172 -117 -421 -117q-256 0 -434.5 139.5 t-178.5 397.5zM297 623h801q-16 41 -32.5 70.5t-59.5 81.5t-119 82t-176 30q-301 0 -414 -264zM614 1128l144 283h256l-264 -283h-136z" />
<glyph unicode="&#xea;" horiz-adv-x="1409" d="M92 506q0 236 166 381t440 145q272 0 442.5 -156.5t176.5 -398.5h-1026q16 -127 74 -196q57 -72 155 -114t209 -42q147 0 258 74q33 23 57.5 49t36 42.5t29.5 51.5l186 -51q-25 -47 -39 -71.5t-48.5 -62.5t-82.5 -71q-172 -117 -421 -117q-256 0 -434.5 139.5 t-178.5 397.5zM297 623h801q-16 41 -32.5 70.5t-59.5 81.5t-119 82t-176 30q-301 0 -414 -264zM381 1128l215 283h221l221 -281h-166l-167 156l-156 -158h-168z" />
<glyph unicode="&#xeb;" horiz-adv-x="1409" d="M92 506q0 236 166 381t440 145q272 0 442.5 -156.5t176.5 -398.5h-1026q16 -127 74 -196q57 -72 155 -114t209 -42q147 0 258 74q33 23 57.5 49t36 42.5t29.5 51.5l186 -51q-25 -47 -39 -71.5t-48.5 -62.5t-82.5 -71q-172 -117 -421 -117q-256 0 -434.5 139.5 t-178.5 397.5zM297 623h801q-16 41 -32.5 70.5t-59.5 81.5t-119 82t-176 30q-301 0 -414 -264zM330 1165v211h198v-211h-198zM868 1165v211h199v-211h-199z" />
<glyph unicode="&#xec;" horiz-adv-x="512" d="M-20 1409h256l137 -281h-133zM158 0v1001h194v-1001h-194z" />
<glyph unicode="&#xed;" horiz-adv-x="512" d="M158 0v1001h194v-1001h-194zM164 1128l143 283h256l-264 -283h-135z" />
<glyph unicode="&#xee;" horiz-adv-x="512" d="M-70 1128l215 283h222l221 -281h-166l-168 156l-156 -158h-168zM158 0v1001h194v-1001h-194z" />
<glyph unicode="&#xef;" horiz-adv-x="512" d="M-121 1165v211h199v-211h-199zM158 0v1001h194v-1001h-194zM418 1165v211h198v-211h-198z" />
<glyph unicode="&#xf0;" d="M90 479q0 244 186.5 394.5t456.5 150.5q70 0 133 -10q129 -20 230 -88q4 -4 15 -12.5t13 -10.5q0 10 -47 80q-39 57 -73.5 98t-56 60.5t-70.5 60.5l-406 -100l-47 98l338 84q-12 8 -207 129l211 51q121 -72 197 -129l301 76l53 -98l-248 -64q330 -297 330 -692 q0 -236 -137 -389q-174 -199 -517 -199q-162 0 -296 43q-88 31 -164 84.5t-135.5 154.5t-59.5 228zM287 492q0 -162 130 -261.5t339 -99.5q182 0 313 100.5t131 266.5q0 170 -132 270t-337 96q-207 -2 -325.5 -109t-118.5 -263z" />
<glyph unicode="&#xf1;" d="M160 0v999h194v-120q82 70 166 102q127 49 279 49q309 0 450 -176q51 -66 65.5 -137.5t14.5 -175.5v-541h-192v528q-2 59 -5.5 92t-26 80.5t-65.5 81.5q-98 80 -274 80q-121 0 -221 -43q-53 -25 -91 -59.5t-57.5 -66t-30 -77t-11.5 -72t-1 -69.5v-475h-194zM360 1237 q82 66 136.5 96.5t111.5 30.5q59 0 166 -43q92 -41 141 -41q57 0 152 61l72 -90q-53 -39 -84 -59.5t-74 -37.5t-80 -17q-51 0 -148.5 35.5t-136.5 41.5q-20 4 -34 5q-59 0 -148 -72z" />
<glyph unicode="&#xf2;" d="M92 481q0 244 182.5 392.5t466.5 150.5h2q279 2 467.5 -135t188.5 -393q0 -246 -186.5 -386.5t-464.5 -140.5q-307 0 -481.5 143.5t-174.5 368.5zM289 494q0 -160 130 -261.5t339 -101.5q182 0 313 100.5t131 264.5q0 170 -133 271t-336 97q-209 -2 -326.5 -109 t-117.5 -261zM492 1409h256l137 -281h-133z" />
<glyph unicode="&#xf3;" d="M92 481q0 244 182.5 392.5t466.5 150.5h2q279 2 467.5 -135t188.5 -393q0 -246 -186.5 -386.5t-464.5 -140.5q-307 0 -481.5 143.5t-174.5 368.5zM289 494q0 -160 130 -261.5t339 -101.5q182 0 313 100.5t131 264.5q0 170 -133 271t-336 97q-209 -2 -326.5 -109 t-117.5 -261zM655 1128l144 283h256l-264 -283h-136z" />
<glyph unicode="&#xf4;" d="M92 481q0 244 182.5 392.5t466.5 150.5h2q279 2 467.5 -135t188.5 -393q0 -246 -186.5 -386.5t-464.5 -140.5q-307 0 -481.5 143.5t-174.5 368.5zM289 494q0 -160 130 -261.5t339 -101.5q182 0 313 100.5t131 264.5q0 170 -133 271t-336 97q-209 -2 -326.5 -109 t-117.5 -261zM422 1128l215 283h221l221 -281h-166l-168 156l-155 -158h-168z" />
<glyph unicode="&#xf5;" d="M92 481q0 244 182.5 392.5t466.5 150.5h2q279 2 467.5 -135t188.5 -393q0 -246 -186.5 -386.5t-464.5 -140.5q-307 0 -481.5 143.5t-174.5 368.5zM289 494q0 -160 130 -261.5t339 -101.5q182 0 313 100.5t131 264.5q0 170 -133 271t-336 97q-209 -2 -326.5 -109 t-117.5 -261zM360 1237q82 66 136.5 96.5t111.5 30.5q59 0 166 -43q92 -41 141 -41q57 0 152 61l72 -90q-53 -39 -84 -59.5t-74 -37.5t-80 -17q-51 0 -148.5 35.5t-136.5 41.5q-20 4 -34 5q-59 0 -148 -72z" />
<glyph unicode="&#xf6;" d="M92 481q0 244 182.5 392.5t466.5 150.5h2q279 2 467.5 -135t188.5 -393q0 -246 -186.5 -386.5t-464.5 -140.5q-307 0 -481.5 143.5t-174.5 368.5zM289 494q0 -160 130 -261.5t339 -101.5q182 0 313 100.5t131 264.5q0 170 -133 271t-336 97q-209 -2 -326.5 -109 t-117.5 -261zM365 1159v211h198v-211h-198zM903 1159v211h199v-211h-199z" />
<glyph unicode="&#xf7;" horiz-adv-x="1366" d="M0 514v162h1364v-162h-1364zM569 295q0 47 33 82t84 35q49 0 82 -34t33 -83q0 -45 -32 -79t-85 -34q-49 0 -82 33t-33 80zM569 891q0 47 33 82t84 35q49 0 82 -35t33 -82q0 -45 -32 -79t-85 -34q-49 0 -82 33t-33 80z" />
<glyph unicode="&#xf8;" d="M57 113l121 90q-90 141 -90 291q0 227 176 380.5t477 153.5q244 0 422 -110l146 102l80 -111l-119 -88q125 -147 125 -327q0 -229 -178.5 -375t-481.5 -146q-111 0 -221 25q-121 29 -229 104l-146 -104zM270 496q0 -109 56 -187l694 502q-127 63 -277 63 q-231 0 -352 -113t-121 -265zM436 213q127 -88 316 -88q193 0 325.5 101.5t132.5 275.5q0 106 -75 221z" />
<glyph unicode="&#xf9;" d="M154 473v526h192v-505q0 -96 11.5 -153.5t52.5 -100.5q94 -102 305 -103q150 0 247 54.5t132 111.5q35 55 34 168v528h195v-999h-190v125q-41 -35 -70 -55.5t-84 -48t-127 -42t-160 -14.5q-174 0 -305 58q-57 25 -98 56.5t-65.5 71t-40 73.5t-21.5 84t-7 80t-1 85z M492 1409h256l137 -281h-133z" />
<glyph unicode="&#xfa;" d="M154 473v526h192v-505q0 -96 11.5 -153.5t52.5 -100.5q94 -102 305 -103q150 0 247 54.5t132 111.5q35 55 34 168v528h195v-999h-190v125q-41 -35 -70 -55.5t-84 -48t-127 -42t-160 -14.5q-174 0 -305 58q-57 25 -98 56.5t-65.5 71t-40 73.5t-21.5 84t-7 80t-1 85z M655 1128l144 283h256l-264 -283h-136z" />
<glyph unicode="&#xfb;" d="M154 473v526h192v-505q0 -96 11.5 -153.5t52.5 -100.5q94 -102 305 -103q150 0 247 54.5t132 111.5q35 55 34 168v528h195v-999h-190v125q-41 -35 -70 -55.5t-84 -48t-127 -42t-160 -14.5q-174 0 -305 58q-57 25 -98 56.5t-65.5 71t-40 73.5t-21.5 84t-7 80t-1 85z M422 1128l215 283h221l221 -281h-166l-168 156l-155 -158h-168z" />
<glyph unicode="&#xfc;" d="M154 473v526h192v-505q0 -96 11.5 -153.5t52.5 -100.5q94 -102 305 -103q150 0 247 54.5t132 111.5q35 55 34 168v528h195v-999h-190v125q-41 -35 -70 -55.5t-84 -48t-127 -42t-160 -14.5q-174 0 -305 58q-57 25 -98 56.5t-65.5 71t-40 73.5t-21.5 84t-7 80t-1 85z M356 1161v211h199v-211h-199zM895 1161v211h199v-211h-199z" />
<glyph unicode="&#xfd;" horiz-adv-x="1236" d="M0 1001h221l391 -806l406 806h217l-565 -1097q-31 -59 -54.5 -94t-66.5 -77t-104.5 -61.5t-145.5 -19.5q-74 0 -238 24v174q147 -29 205 -28q96 0 145.5 42t96.5 130zM528 1128l144 283h256l-264 -283h-136z" />
<glyph unicode="&#xfe;" d="M158 -401v1847h194v-553q53 37 90 57.5t133.5 47t208.5 26.5q262 0 437.5 -140.5t175.5 -375.5q0 -219 -152.5 -372.5t-421.5 -153.5q-164 0 -293 47q-104 37 -178 110v-540h-194zM342 496q0 -104 46 -180t118 -112t137.5 -51.5t128.5 -15.5q190 0 302 104.5t112 270.5 q0 154 -115 256t-305 102q-176 0 -300 -92t-124 -282z" />
<glyph unicode="&#xff;" horiz-adv-x="1236" d="M0 1001h221l391 -806l406 806h217l-565 -1097q-31 -59 -54.5 -94t-66.5 -77t-104.5 -61.5t-145.5 -19.5q-74 0 -238 24v174q147 -29 205 -28q96 0 145.5 42t96.5 130zM244 1165v211h198v-211h-198zM782 1165v211h199v-211h-199z" />
<glyph unicode="&#x152;" horiz-adv-x="2347" d="M98 725q0 324 217 533.5t600 209.5q45 0 138.5 -10t128.5 -12h1087v-180h-876v-439h817v-168h-817v-481h884v-178h-1075l-39 -4q-41 -4 -59.5 -6t-64.5 -5t-76.5 -3t-78.5 -1t-87 3t-83 10t-86 16t-79 25q-225 86 -344 278q-107 176 -107 412zM307 721q0 -270 168 -424 t445 -154q98 0 278 33v1096q-162 35 -270 35q-293 0 -457 -164t-164 -422z" />
<glyph unicode="&#x153;" horiz-adv-x="2347" d="M86 503.5q0 241.5 178 383t422 141.5q154 0 289 -55q106 -45 194 -137q35 35 61.5 56t86 58t143.5 56.5t185 19.5q291 0 458 -180q131 -143 148 -369h-983q8 -141 100 -231q117 -115 309 -115q252 0 365 207l184 -49q-53 -106 -129 -172q-170 -143 -428 -144 q-295 0 -491 197q-188 -197 -498 -197q-258 0 -426 144.5t-168 386zM283 494q0 -152 108.5 -255.5t300.5 -103.5q172 0 286 98.5t114 260.5q0 170 -117 273t-295 99q-174 -4 -285.5 -109t-111.5 -263zM1278 625h745q-37 127 -140 190.5t-232 63.5q-154 0 -258 -80 q-74 -57 -115 -174z" />
<glyph unicode="&#x178;" horiz-adv-x="1662" d="M4 1446h264l502 -631q39 -53 57 -98q18 41 56 88l516 641h262l-733 -887v-559h-203v563zM446 1585v211h199v-211h-199zM985 1583v211h199v-211h-199z" />
<glyph unicode="&#x2c6;" horiz-adv-x="768" d="M55 1128l215 283h222l221 -281h-166l-168 156l-156 -158h-168z" />
<glyph unicode="&#x2dc;" horiz-adv-x="768" d="M-4 1237q82 66 136 96.5t112 30.5q59 0 166 -43q92 -41 141 -41q57 0 151 61l72 -90q-53 -39 -84 -59.5t-74 -37.5t-79 -17q-51 0 -148.5 35.5t-136.5 41.5q-20 4 -35 5q-59 0 -147 -72z" />
<glyph unicode="&#x2013;" horiz-adv-x="1449" d="M117 420v151h1206v-151h-1206z" />
<glyph unicode="&#x2014;" horiz-adv-x="1622" d="M117 420v151h1376v-151h-1376z" />
<glyph unicode="&#x2018;" horiz-adv-x="512" d="M127 963v249q0 111 31 158q23 35 62.5 55.5t63 24.5t68.5 8v-112q-66 -6 -79 -35t-13 -129h92v-219h-225z" />
<glyph unicode="&#x2019;" horiz-adv-x="512" d="M154 946v113q66 6 79 35.5t13 128.5h-92v223h225v-252q0 -109 -31 -160q-23 -35 -62.5 -55.5t-63 -24.5t-68.5 -8z" />
<glyph unicode="&#x201a;" horiz-adv-x="512" d="M145 0v221h224v-250q0 -111 -31 -157q-23 -35 -61.5 -55.5t-62.5 -24.5t-69 -8v112q66 8 79.5 35t13.5 127h-93z" />
<glyph unicode="&#x201c;" horiz-adv-x="894" d="M141 963v249q0 111 31 158q23 35 62.5 55.5t63.5 24.5t69 8v-112q-66 -6 -79.5 -35t-13.5 -129h93v-219h-226zM522 963v249q0 111 31 158q23 35 62.5 55.5t63 24.5t69.5 8v-112q-66 -6 -79.5 -35t-13.5 -129h93v-219h-226z" />
<glyph unicode="&#x201d;" horiz-adv-x="894" d="M139 948v113q66 4 79 33.5t13 128.5h-92v223h223v-252q0 -111 -30 -158q-52 -78 -193 -88zM520 948v113q66 4 79 33.5t13 128.5h-92v223h225v-252q0 -106 -30 -158q-52 -78 -195 -88z" />
<glyph unicode="&#x201e;" horiz-adv-x="894" d="M145 0v221h224v-250q0 -111 -31 -157q-49 -78 -193 -88v112q66 4 79.5 34t13.5 128h-93zM524 0v221h224v-250q0 -113 -31 -157q-49 -78 -193 -88v110q63 6 77.5 37t14.5 127h-92z" />
<glyph unicode="&#x2022;" horiz-adv-x="681" d="M76 723q0 106 76.5 186t191.5 80q111 0 187.5 -75.5t76.5 -190.5q0 -113 -72.5 -189.5t-189.5 -76.5q-119 0 -194.5 78.5t-75.5 187.5z" />
<glyph unicode="&#x2026;" horiz-adv-x="2048" d="M229 0v223h226v-223h-226zM913 0v223h226v-223h-226zM1595 0v223h226v-223h-226z" />
<glyph unicode="&#x2039;" horiz-adv-x="598" d="M84 436v176l414 324v-129l-262 -285l262 -280v-129z" />
<glyph unicode="&#x203a;" horiz-adv-x="598" d="M96 109v131l264 282l-264 281v133l414 -326v-176z" />
<glyph unicode="&#x2122;" horiz-adv-x="1406" d="M33 1346v100h553v-100h-215v-580h-119v580h-219zM643 766v680h162l170 -537l166 537h162v-680h-115v422q2 43 8 137q-8 -31 -33 -115l-139 -444h-104l-142 444q-2 6 -4 15.5t-10 35t-19 62.5q2 -18 5.5 -67.5t5.5 -67.5v-422h-113z" />
<glyph unicode="&#xe000;" horiz-adv-x="1000" d="M0 1000h1000v-1000h-1000v1000z" />
<glyph unicode="&#xfb01;" horiz-adv-x="1150" d="M10 872v132h166v106q0 174 62 250q78 98 249 98q31 0 156 -14v-174q-74 18 -121 18q-55 0 -100 -22q-55 -31 -55 -123v-139h274v-134h-274v-870h-193v872h-164zM795 1167v197h192v-197h-192zM797 0v1001h194v-1001h-194z" />
<glyph unicode="&#xfb02;" horiz-adv-x="1150" d="M10 872v132h168v106q0 174 62 250q78 98 249 98q31 0 156 -14v-174q-74 18 -121 18t-106 -22q-2 -2 -12.5 -10.5t-14.5 -15.5t-11 -21.5t-10 -39t-3 -57.5v-118h274v-134h-274v-870h-193v872h-164zM799 0v1446h192v-1446h-192z" />
<glyph unicode="&#xfb03;" horiz-adv-x="1794" d="M1438 1167v197h192v-197h-192zM1440 0v999h194v-999h-194zM651 872v132h166v106q0 174 62 250q78 98 249 98q61 0 158 -14v-174q-74 18 -121 18q-59 0 -96 -18q-33 -18 -47 -47t-14 -97v-122h274v-134h-274v-870h-193v872h-164zM10 872v132h166v106q0 174 62 250 q78 98 249 98q61 0 158 -14v-174q-74 18 -121 18q-59 0 -96 -18q-33 -18 -47 -47t-14 -97v-122h274v-134h-274v-870h-193v872h-164z" />
<glyph unicode="&#xfb04;" horiz-adv-x="1794" d="M1440 0v1446h192v-1446h-192zM651 872v132h166v106q0 174 62 250q78 98 249 98q61 0 158 -14v-174q-74 18 -121 18q-59 0 -96 -18q-33 -18 -47 -47t-14 -97v-122h274v-134h-274v-870h-193v872h-164zM10 872v132h166v106q0 174 62 250q78 98 249 98q61 0 158 -14v-174 q-74 18 -121 18q-59 0 -96 -18q-33 -18 -47 -47t-14 -97v-122h274v-134h-274v-870h-193v872h-164z" />
</font>
</defs>
</svg>
