<?xml version="1.0" standalone="no"?>
<!DOCTYPE svg PUBLIC "-//W3C//DTD SVG 1.1//EN" "http://www.w3.org/Graphics/SVG/1.1/DTD/svg11.dtd" >
<svg xmlns="http://www.w3.org/2000/svg">
<metadata>
This is a custom SVG webfont generated by Font Squirrel.
Copyright   : Copyright c 1991 Adobe Systems Incorporated  All Rights ReservedBerthold Akzidenz Grotesk is a registered trademark of H Berthold AG
</metadata>
<defs>
<font id="BertholdAkzidenzGroteskBELtCn" horiz-adv-x="641" >
<font-face units-per-em="2048" ascent="1638" descent="-410" />
<missing-glyph horiz-adv-x="468" />
<glyph unicode=" "  horiz-adv-x="468" />
<glyph unicode="&#x09;" horiz-adv-x="468" />
<glyph unicode="&#xa0;" horiz-adv-x="468" />
<glyph unicode="!" horiz-adv-x="382" d="M186 676v770h101v-787l-25 -278h-55zM188 0v184h93v-184h-93z" />
<glyph unicode="&#x22;" horiz-adv-x="811" d="M154 1448q0 45 25.5 65.5t56.5 20.5q35 0 59 -23.5t18 -64.5l-65 -520h-35l-57 493q0 6 -1 14.5t-1 14.5zM496 1448q0 45 25.5 65.5t56.5 20.5q35 0 59.5 -23.5t17.5 -64.5l-65 -520h-35l-57 493q0 6 -1 15.5t-1 13.5z" />
<glyph unicode="#" horiz-adv-x="1193" d="M12 539v84h363l31 227h-347v84h359l69 512h88l-67 -512h237l74 512h82l-67 -512h348v-84h-361l-33 -227h351v-84h-363l-78 -539h-86l78 539h-239l-78 -539h-86l75 539h-350zM463 623h237l33 227h-237z" />
<glyph unicode="$" horiz-adv-x="768" d="M96 436h92q0 -172 17 -217q20 -66 74.5 -97.5t109.5 -31.5q57 0 105 29q92 57 92 207q0 113 -45 178t-199 207q-131 119 -169 196.5t-38 194.5q0 68 16.5 119t37 78.5t55.5 45t58.5 23.5t57.5 10v74h60v-74q66 -8 109.5 -33.5t65 -52t33 -79t13.5 -86t2 -99.5h-96 q0 59 -1 88t-9.5 69t-24.5 58.5t-47 31.5t-78 13q-53 0 -88 -18.5t-47 -53t-15.5 -56t-3.5 -56.5q0 -111 38 -167t221 -230q111 -106 150.5 -186.5t39.5 -186.5q0 -295 -260 -334v-141h-62v139q-156 25 -219 133q-31 53 -38 116.5t-7 188.5z" />
<glyph unicode="%" horiz-adv-x="1193" d="M41 752v475q0 31 1 50t11 55t29.5 58.5t59.5 41t96 18.5q51 0 86.5 -16.5t54 -37t28 -58.5t10.5 -59.5t1 -61.5v-467q0 -217 -187 -218q-190 1 -190 220zM119 760q0 -152 112 -152q111 0 111 142v475q0 27 -1 42t-6 37.5t-16.5 35t-33 21.5t-54.5 9q-39 0 -64.5 -12 t-34.5 -37t-11 -40t-2 -40v-481zM186 -119l750 1727q31 -10 53 -25l-751 -1726q-19 10 -52 24zM766 211v473q0 31 1 50.5t11 55t29.5 58t59.5 41t96 18.5q51 0 86.5 -16.5t54 -36.5t28 -58t10.5 -59.5t1 -62.5v-467q0 -217 -187 -217q-190 0 -190 221zM844 217 q0 -152 112 -151q111 0 111 141v477q0 27 -1 41t-6 36.5t-16.5 35t-33 21.5t-54.5 9q-39 0 -64.5 -12t-34.5 -36.5t-11 -40t-2 -40.5v-481z" />
<glyph unicode="&#x26;" horiz-adv-x="894" d="M66 270q0 80 31.5 159t65.5 125t97 124q-70 205 -70 328q0 109 50.5 176t146.5 67q76 0 125 -47t49 -131q0 -61 -30.5 -132t-64.5 -122t-106 -145q113 -248 254 -479q68 90 85.5 207.5t13.5 299.5h90q0 -225 -27.5 -348t-103.5 -223q61 -51 143 -51q29 0 43 2v-84 q-104 0 -151.5 13.5t-98.5 51.5q-100 -80 -237 -79q-141 0 -223 77.5t-82 210.5zM156 283q0 -20 5 -46t23.5 -70t68.5 -72.5t126 -28.5q100 0 172 57q-147 229 -252 461q-143 -176 -143 -301zM274 1001q0 -115 52 -235q147 199 147 301q0 45 -23.5 74.5t-68.5 29.5 q-37 0 -61.5 -21.5t-32.5 -57t-10.5 -54.5t-2.5 -37z" />
<glyph unicode="'" horiz-adv-x="425" d="M133 1448q0 45 28.5 65.5t55.5 20.5q33 0 57.5 -23.5t18.5 -64.5l-66 -520h-34l-58 493q0 6 -1 14.5t-1 14.5z" />
<glyph unicode="(" horiz-adv-x="468" d="M59 596q0 229 82 444q39 100 86 182.5t78 122t86 103.5v-115q-119 -162 -180 -366q-59 -190 -59 -383q0 -184 59 -396q55 -188 182 -356v-117q-141 150 -217 324q-117 274 -117 557z" />
<glyph unicode=")" horiz-adv-x="468" d="M76 1331v119q141 -150 217 -326q117 -274 117 -555q0 -225 -82 -446q-37 -100 -84 -181t-79 -122t-87 -103v115q119 162 180 367q59 188 59 381q0 186 -59 395q-55 194 -182 356z" />
<glyph unicode="*" horiz-adv-x="555" d="M53 1251l21 68l166 -47v174h73v-174l168 55l23 -63l-170 -64l102 -141l-57 -43l-105 141l-92 -141l-61 43l98 145z" />
<glyph unicode="+" horiz-adv-x="1024" d="M63 551v90h406v399h90v-399h399v-90h-399v-404h-90v404h-406z" />
<glyph unicode="," horiz-adv-x="299" d="M102 -139q31 20 41.5 46.5t10.5 92.5h-50v186h93v-186q0 -88 -22.5 -124t-72.5 -60v45z" />
<glyph unicode="-" horiz-adv-x="512" d="M76 555v88h362v-88h-362z" />
<glyph unicode="." horiz-adv-x="299" d="M106 0v184h91v-184h-91z" />
<glyph unicode="/" d="M70 0l409 1446h92l-407 -1446h-94z" />
<glyph unicode="0" horiz-adv-x="724" d="M74 326v804q0 322 301 322q109 0 184 -55q47 -37 71.5 -97.5t24.5 -191.5v-799q0 -96 -32.5 -163.5t-84 -96.5t-92 -39t-81.5 -10q-109 0 -183 55q-108 81 -108 271zM168 346q0 -47 2 -73.5t15.5 -63.5t39.5 -64q55 -55 137 -55t140.5 55.5t58.5 161.5v838 q0 70 -17.5 116t-49 65.5t-60 26.5t-63.5 7q-57 0 -98.5 -18.5t-60.5 -41t-30.5 -59.5t-12.5 -57.5t-1 -53.5v-784z" />
<glyph unicode="1" horiz-adv-x="724" d="M102 1155v80q193 29 248 203h92v-1438h-102v1260q-68 -57 -117 -76t-121 -29z" />
<glyph unicode="2" horiz-adv-x="724" d="M84 0v104q0 59 219 371q141 199 180 313.5t39 292.5q0 57 -3 91t-16.5 85.5t-48 78t-89.5 26.5q-57 0 -94.5 -25.5t-50.5 -77t-16 -86t-3 -96.5v-98h-90v137q0 39 1 62.5t7 69.5t23.5 76t43 60.5t71.5 47t105 16.5q90 0 156 -49q53 -41 74.5 -106.5t21.5 -178.5 q0 -236 -42 -355.5t-218 -365.5q-98 -137 -123.5 -180t-60.5 -127h453v-86h-539z" />
<glyph unicode="3" horiz-adv-x="724" d="M72 440h90q4 -158 12 -212t35 -91q49 -68 151 -67q80 0 136.5 56t56.5 171q0 227 -16 278q-14 47 -48 79t-84.5 46.5t-81 18.5t-81.5 8v94q127 0 198.5 58.5t71.5 152.5v121q0 43 -4 72.5t-18.5 64.5t-49 52.5t-88 17.5t-87.5 -19.5t-46 -54.5t-15 -57.5t-3 -54.5v-154 h-90v158q0 268 247 268q246 0 246 -266v-140q0 -66 -18.5 -114.5t-56 -78.5t-62.5 -42t-70 -29q41 -10 64.5 -16t63.5 -28.5t61.5 -53.5t39 -86t17.5 -129v-154q0 -33 -2 -58.5t-17.5 -79.5t-43 -91t-87 -66.5t-141.5 -29.5q-156 0 -227 116q-31 49 -39 111.5t-14 228.5z " />
<glyph unicode="4" horiz-adv-x="724" d="M39 461v94l373 881h127v-889h172v-86h-172v-461h-93v461h-407zM131 547h313v756z" />
<glyph unicode="5" horiz-adv-x="724" d="M94 309v146h90v-113q0 -51 1 -77.5t9.5 -67.5t25 -62.5t49 -38t79.5 -16.5q51 0 87 17.5t53.5 40t26.5 69.5t10 78.5t1 93.5v299q0 211 -155 211q-172 0 -172 -199h-76v750h475v-88h-383v-430q88 55 164 55q240 0 239 -328v-270q0 -68 -2 -104.5t-15 -98t-38.5 -96.5 t-78 -61.5t-128.5 -26.5q-74 0 -127 24.5t-78.5 55t-39 82t-15.5 80t-2 75.5z" />
<glyph unicode="6" horiz-adv-x="724" d="M98 330v825q0 154 80 227q82 74 215 74q145 0 209 -84q37 -45 45 -107.5t8 -201.5l-92 -2q0 66 -1 97.5t-10 79.5t-26.5 70.5t-51.5 40t-85 17.5q-76 0 -127 -41q-70 -55 -69 -186v-348q104 88 217 88q137 0 202 -103q41 -66 41 -252v-266q0 -82 -30.5 -138.5t-78.5 -82 t-89 -35.5t-80 -10q-115 0 -189 61q-51 43 -69.5 105.5t-18.5 171.5zM190 340q0 -37 1.5 -60.5t10.5 -64.5t27.5 -66.5t55.5 -45t88 -19.5q74 0 123 39q66 49 65 160v299q0 207 -158 206q-55 0 -106 -26q-106 -55 -107 -209v-213z" />
<glyph unicode="7" horiz-adv-x="724" d="M98 1350v88h553v-88q-147 -332 -217 -594q-90 -350 -90 -592v-164h-100v96q0 285 80 611q35 143 75.5 264t67.5 184.5t88 194.5h-457z" />
<glyph unicode="8" horiz-adv-x="724" d="M84 303v248q0 68 14.5 116t44 76.5t48 40t53.5 25.5q-82 37 -111 82t-29 127v201q0 27 2.5 46t15.5 59t37.5 66.5t77 48t125.5 21.5q90 0 148.5 -25.5t81 -72.5t29 -82t6.5 -86v-168q0 -74 -22.5 -119t-49.5 -62.5t-78 -35.5q90 -33 129 -91.5t39 -191.5v-264 q0 -25 -2 -46t-16.5 -68.5t-41 -79t-83 -57t-133.5 -25.5q-125 0 -205 69q-80 74 -80 248zM178 322q0 -35 1 -57.5t11.5 -63.5t29 -64.5t56 -43t91.5 -19.5q184 0 184 215v252q0 221 -182 221q-190 0 -191 -213v-227zM199 1018q0 -57 21.5 -94t55 -50.5t51 -16.5t35.5 -3 q20 0 41 4t55 19.5t54 56.5t20 102v144q0 33 -1 51t-10 50t-26.5 48.5t-52 30.5t-84.5 14q-160 0 -159 -162v-194z" />
<glyph unicode="9" horiz-adv-x="724" d="M68 389h94v-110q0 -201 176 -201q199 0 199 215v369q-92 -88 -215 -89q-115 0 -185 66q-68 66 -67 213v254q0 61 2 94t14 81t39 81q76 98 229 98q133 0 209 -76q33 -33 49.5 -82t18.5 -83.5t2 -98.5v-819q0 -31 -2 -56.5t-17.5 -78.5t-43 -88t-87 -63.5t-141.5 -28.5 q-174 0 -240 118q-25 45 -29.5 96.5t-4.5 188.5zM166 831q0 -80 42 -123.5t109 -43.5q84 0 144 47q49 39 63.5 91t14.5 130v192q0 39 -2 64.5t-12.5 63.5t-29 60.5t-55.5 39t-90 16.5q-72 0 -128 -40t-56 -146v-351z" />
<glyph unicode=":" horiz-adv-x="382" d="M188 0v184h91v-184h-91zM188 748v184h91v-184h-91z" />
<glyph unicode=";" horiz-adv-x="382" d="M184 -139q31 20 42.5 46.5t9.5 92.5h-50v186h93v-186q0 -88 -23 -124t-70 -60zM186 745v187h95v-187h-95z" />
<glyph unicode="&#x3c;" horiz-adv-x="1024" d="M0 666v120l1024 521v-103l-934 -477l934 -487v-101z" />
<glyph unicode="=" horiz-adv-x="1024" d="M0 375v90h1024v-90h-1024zM0 735v90h1024v-90h-1024z" />
<glyph unicode="&#x3e;" horiz-adv-x="1024" d="M0 139v101l934 487l-934 477v103l1024 -521v-120z" />
<glyph unicode="?" horiz-adv-x="724" d="M143 1130q0 340 254 340q162 0 221 -143q33 -80 33 -268q0 -86 -13 -145.5t-31.5 -91t-67.5 -105.5q-66 -96 -80.5 -126t-14.5 -75v-160h-96v168q0 59 15.5 93t74.5 124q76 109 96.5 158t20.5 141q0 82 -4 131.5t-18.5 104.5t-49 81.5t-90.5 26.5q-154 0 -153 -272 q0 -18 1 -60t1 -65h-95q0 29 -1 59.5t-2 49t-1 34.5zM348 0v184h96v-184h-96z" />
<glyph unicode="@" horiz-adv-x="1835" d="M141 475q0 252 118 475.5t338 365.5t488 142q287 0 448 -161.5t161 -426.5q0 -178 -65.5 -346t-175.5 -272.5t-226 -104.5q-47 0 -86 23q-35 23 -51.5 57.5t-18.5 57t0 65.5q-27 -37 -48.5 -60.5t-63 -61.5t-94 -57t-109.5 -19q-104 0 -174 71q-86 86 -86 254 q0 219 128 397.5t298 178.5q176 0 247 -209l37 162h109l-66 -297q-61 -283 -61 -363q0 -113 82 -113q106 0 225 196t119 441q0 242 -146.5 377t-398.5 135q-344 0 -596 -271t-252 -636q0 -311 203 -481t500 -170q190 0 362 74q172 70 336 223l47 -53q-152 -147 -315 -222 q-209 -98 -428 -98q-154 0 -293 46t-250 133t-176.5 228.5t-65.5 319.5zM621 477q0 -104 52 -166.5t136 -62.5q135 0 229 147q41 59 68 151.5t27 164.5q0 76 -21.5 129t-55.5 76.5t-62.5 32.5t-55.5 9q-141 0 -229 -158.5t-88 -322.5z" />
<glyph unicode="A" horiz-adv-x="768" d="M49 0l264 1454h140l262 -1454h-107l-73 440h-304l-75 -440h-107zM248 535h268l-113 669q-2 8 -5 30.5t-7 54.5t-8 52l-6 -59q-2 -10 -5 -32.5t-5 -32.5z" />
<glyph unicode="B" horiz-adv-x="768" d="M123 0v1448h260q39 0 62.5 -2t63.5 -14.5t63.5 -35t42 -70.5t18.5 -116v-206q0 -117 -43 -159t-129 -61q131 -18 176 -76.5t45 -191.5v-246q0 -119 -57.5 -194.5t-214.5 -75.5h-287zM221 823h98q74 0 120 18.5t64.5 53.5t23.5 62.5t5 68.5v174q0 94 -39.5 127t-144.5 33 h-127v-537zM223 88h170q66 0 106 15.5t57 51t21.5 68.5t4.5 90v205q0 45 -7.5 78t-31 67.5t-77.5 53t-138 18.5h-105v-647z" />
<glyph unicode="C" horiz-adv-x="768" d="M106 328v784q0 70 3.5 104.5t20.5 80.5t52 81q74 82 211 82q94 0 162 -41q113 -68 113 -237v-203h-101q0 176 -3 226t-21 83q-39 80 -140 80q-199 0 -198 -235v-705q0 -74 1 -110.5t11 -92t30.5 -83t60.5 -49t98 -21.5q176 0 176 202v224h102v-224q0 -297 -295 -297 q-139 0 -219 95q-64 78 -64 256z" />
<glyph unicode="D" horiz-adv-x="811" d="M123 0v1448h123q145 0 234 -33t138.5 -110.5t65.5 -180t16 -270.5v-322q0 -211 -30 -299q-31 -94 -116 -163.5t-241 -69.5h-190zM223 90q113 0 164 8t100 43q53 39 84 118t31 265v330q0 227 -33 328q-16 49 -46.5 83.5t-59.5 51t-77 26t-77.5 10.5t-85.5 1v-1264z" />
<glyph unicode="E" horiz-adv-x="681" d="M121 0v1446h512v-90h-412v-557h338v-88h-340v-621h412v-90h-510z" />
<glyph unicode="F" d="M119 0v1446h512v-90h-412v-557h363v-88h-363v-711h-100z" />
<glyph unicode="G" horiz-adv-x="811" d="M113 373v760q0 43 2 71.5t17 82.5t45 88t90.5 60.5t146.5 26.5q102 0 174 -45q106 -70 106 -235v-201h-98v149q0 53 -4 83t-19.5 74t-57.5 66.5t-107 22.5q-104 0 -156 -69q-29 -39 -35 -81t-6 -141v-684q0 -160 20 -213q43 -121 166 -120q76 0 140.5 71.5t64.5 200.5 v231h-213v88h311v-659h-75v115q-86 -135 -240 -135q-147 0 -217 110q-55 82 -55 283z" />
<glyph unicode="H" horiz-adv-x="811" d="M119 0v1446h100v-643h373v643h100v-1446h-100v715h-373v-715h-100z" />
<glyph unicode="I" horiz-adv-x="342" d="M119 0v1446h104v-1446h-104z" />
<glyph unicode="J" horiz-adv-x="681" d="M86 248v207h98v-187q0 -84 17 -118q33 -80 133 -80q10 0 21.5 2t33 12t37.5 26.5t28.5 52.5t12.5 85v1198h100v-1182q0 -37 -6 -70.5t-26.5 -90t-78 -90t-143.5 -33.5q-33 0 -65.5 10t-72.5 34.5t-64.5 83t-24.5 140.5z" />
<glyph unicode="K" horiz-adv-x="724" d="M119 0v1446h100v-709l361 709h112l-307 -576l311 -870h-106l-266 750l-107 -201v-549h-98z" />
<glyph unicode="L" d="M119 0v1446h100v-1356h377v-90h-477z" />
<glyph unicode="M" horiz-adv-x="1024" d="M111 0l12 1446h147l162 -832q51 -262 80 -460q27 217 59 383l179 909h145l14 -1446h-94l-4 1085q0 139 6 273l-260 -1358h-94l-260 1364q6 -147 6 -467v-897h-98z" />
<glyph unicode="N" horiz-adv-x="811" d="M113 0v1446h147l350 -1403q-10 190 -10 348l-8 1055h98v-1446h-153l-342 1382q8 -221 8 -354l4 -1028h-94z" />
<glyph unicode="O" horiz-adv-x="811" d="M113 309v815q0 152 51 226q78 113 248 112q162 0 233 -106q51 -76 51 -262v-797q0 -129 -47 -199q-76 -117 -248 -116q-82 0 -140 26.5t-86 60t-43 88t-17 83t-2 69.5zM209 348q0 -104 16.5 -156.5t61.5 -85.5q51 -35 119 -34q57 0 96 24q59 33 78.5 91.5t19.5 146.5v704 q0 221 -59 283q-51 51 -135 51q-86 0 -138 -51q-59 -57 -59 -176v-797z" />
<glyph unicode="P" horiz-adv-x="768" d="M117 -2v1450h225q113 0 179.5 -15.5t109.5 -70.5q51 -66 51 -238v-163q0 -51 -3 -82t-23.5 -79t-61.5 -79q-80 -63 -227 -64h-148v-659h-102zM217 743h162q70 0 114 19.5t62 55.5t23.5 66.5t5.5 76.5v124q0 172 -38 224.5t-175 52.5h-154v-619z" />
<glyph unicode="Q" horiz-adv-x="811" d="M111 469v653q0 344 301 344q285 0 284 -319v-801q0 -133 -31.5 -196.5t-95.5 -114.5l189 -172l-62 -64l-217 195q-51 -10 -82 -10q-150 0 -223 98q-43 59 -53 139t-10 248zM209 424q0 -51 1 -80t6 -77t17.5 -76.5t32 -58.5t53 -44t78.5 -14q70 0 115 32.5t61.5 88 t20.5 86t4 63.5v805q0 102 -47 163.5t-145 61.5q-197 0 -197 -262v-688z" />
<glyph unicode="R" horiz-adv-x="768" d="M121 0v1446h278q53 0 93 -7t89.5 -30t77 -77t27.5 -138v-225q0 -217 -203 -256l267 -713h-107l-264 705h-158v-705h-100zM221 791h182q176 0 177 153v223q0 115 -43 154t-127 39h-189v-569z" />
<glyph unicode="S" horiz-adv-x="768" d="M86 270v203h100v-115q0 -68 2 -97.5t11.5 -64t29.5 -61.5q53 -68 168 -67q102 0 144.5 58t42.5 177t-40 189.5t-171 199.5q-100 100 -142.5 149.5t-76 129.5t-33.5 176q0 45 4 81t19.5 83t43 78.5t81 54t124.5 22.5q66 0 114 -14t76.5 -43t46 -56.5t25 -73.5t8.5 -72.5 t1 -73.5v-105h-99v129q0 47 -3 75t-17.5 67.5t-52 60t-97.5 20.5q-94 0 -134 -53t-40 -164q0 -109 43 -184.5t203 -237.5q90 -92 127 -137t63.5 -116.5t26.5 -165.5q0 -51 -4 -90t-20.5 -90.5t-46 -84t-87 -56.5t-137.5 -24q-135 0 -219 73t-84 220z" />
<glyph unicode="T" d="M14 1356v92h611v-92h-258v-1356h-101v1356h-252z" />
<glyph unicode="U" horiz-adv-x="811" d="M117 342v1106h98v-1122q0 -43 1 -66.5t11.5 -65.5t28.5 -65t57 -41t95 -18q102 0 149 69q23 31 29 77t6 169v1063h100v-1159q0 -31 -2 -56.5t-17.5 -78t-43 -87t-87 -63.5t-141.5 -29q-111 0 -184 56q-47 35 -70.5 92t-26.5 99t-3 120z" />
<glyph unicode="V" horiz-adv-x="724" d="M55 1446h105l141 -879q35 -227 53 -393q25 184 64 416l147 856h103l-262 -1446h-105z" />
<glyph unicode="W" horiz-adv-x="1150" d="M43 1446h102l113 -694q59 -360 80 -596q16 172 53 413l135 877h107l139 -887q33 -225 51 -391q29 283 80 596l107 682h100l-236 -1446h-108l-135 905q-37 254 -51 381q-25 -223 -84 -608q-82 -528 -103 -678h-104z" />
<glyph unicode="X" horiz-adv-x="724" d="M49 0l262 797l-202 649h104l123 -420q23 -82 33 -137q12 55 51 180l117 377h104l-219 -651l254 -795h-105l-163 532q-18 59 -43 168q-14 -70 -41 -151l-172 -549h-103z" />
<glyph unicode="Y" horiz-adv-x="724" d="M29 1446h106l230 -680l231 680h111l-295 -807v-639h-99v639z" />
<glyph unicode="Z" horiz-adv-x="724" d="M55 0v66l480 1292h-394v88h510v-68l-483 -1288h481v-90h-594z" />
<glyph unicode="[" horiz-adv-x="468" d="M109 -289v1737h290v-76h-202v-1583h202v-78h-290z" />
<glyph unicode="\" d="M70 1446h90l413 -1446h-94z" />
<glyph unicode="]" horiz-adv-x="468" d="M66 1372v76h294v-1737h-286v78h198v1583h-206z" />
<glyph unicode="^" horiz-adv-x="1492" d="M348 743l352 705h103l344 -705h-115l-282 590l-289 -590h-113z" />
<glyph unicode="_" horiz-adv-x="1024" d="M-20 -154h1064v-102h-1064v102z" />
<glyph unicode="`" horiz-adv-x="468" d="M45 1389h199l178 -224h-68z" />
<glyph unicode="a" d="M57 242q0 70 18.5 124t56.5 92t69.5 59.5t83.5 47.5q125 66 172 103v118q0 55 -7.5 87t-37 56.5t-86.5 24.5q-49 0 -79 -16t-42 -56t-14.5 -72t-2.5 -97h-88q0 63 2 96t13.5 84t35 76.5t70.5 46t115 20.5q209 0 209 -225v-692q0 -37 61 -37v-82q-72 0 -103.5 15.5 t-43.5 64.5q-102 -80 -199 -80q-102 0 -152.5 69t-50.5 173zM145 240q0 -68 33 -113t101 -45q41 0 78.5 17.5t55 34t46.5 46.5v391q-31 -20 -123 -71q-51 -29 -75.5 -46.5t-56.5 -48t-45.5 -70.5t-13.5 -95z" />
<glyph unicode="b" horiz-adv-x="681" d="M106 0v1446h87v-504q23 29 39 45.5t57 35.5t92 19q201 0 201 -274v-528q0 -111 -62.5 -178.5t-154.5 -67.5q-104 0 -168 90v-84h-91zM195 279q0 -100 51 -153.5t112 -53.5q51 0 86 34q51 49 52 164v502q0 188 -138 189q-68 0 -115.5 -46.5t-47.5 -140.5v-495z" />
<glyph unicode="c" d="M82 295v475q0 260 235 260q238 0 238 -276v-90h-86q0 143 -12 184q-31 106 -135 106q-152 0 -152 -190v-442q0 -45 1 -69t9 -63.5t24.5 -60t48.5 -37t79 -16.5q143 0 143 168v149h90v-133q0 -266 -250 -266q-129 0 -186 86q-47 65 -47 215z" />
<glyph unicode="d" horiz-adv-x="681" d="M98 252v516q0 82 22.5 139.5t59.5 81t65.5 32.5t59.5 9q49 0 89 -18.5t55.5 -34.5t37.5 -45v514h86v-1446h-79v109q-63 -117 -191 -117q-205 0 -205 260zM184 268q0 -199 142 -198q76 0 118.5 56t42.5 93v547q0 23 -10 60.5t-50 79.5t-99 42q-18 0 -36 -5t-45.5 -20.5 t-45 -55.5t-17.5 -99v-500z" />
<glyph unicode="e" d="M88 250v538q0 119 60.5 183.5t170.5 64.5q57 0 100.5 -14t69 -43t41 -55.5t21.5 -71.5t7 -69.5t1 -69.5v-207h-385v-254q0 -174 152 -174q102 0 133 86q14 35 14 192h86v-114q0 -117 -61.5 -180.5t-175.5 -63.5q-100 0 -162 57q-72 62 -72 195zM174 578h297v190 q0 190 -147 190q-150 0 -150 -198v-182z" />
<glyph unicode="f" horiz-adv-x="382" d="M35 948v84h123v207q0 207 182 207q16 0 53 -4v-80q-14 2 -35 2q-117 0 -116 -129v-203h127v-84h-131v-948h-86v948h-117z" />
<glyph unicode="g" horiz-adv-x="681" d="M96 -104h86q2 -25 5 -39.5t14.5 -41t43 -41t79.5 -14.5q16 0 35.5 4.5t52 16.5t54 49t21.5 92v172q-82 -90 -180 -90q-57 0 -98 22.5t-60.5 50t-31 74t-12.5 72t-1 64.5v520q0 233 211 233q100 0 172 -94v88h88v-1081q0 -150 -79 -217q-66 -59 -174 -60q-88 0 -152 43 q-31 23 -48.5 54.5t-20.5 56.5t-5 66zM190 283q0 -37 3.5 -60.5t13.5 -60.5t41 -56.5t78 -19.5q78 0 119.5 58.5t41.5 97.5v577q0 37 -40.5 90.5t-114.5 53.5q-49 0 -81 -20.5t-43 -58.5t-14.5 -62.5t-3.5 -61.5v-477z" />
<glyph unicode="h" horiz-adv-x="681" d="M111 0v1448h88v-498q86 92 186 92q74 0 129 -41q72 -57 72 -184v-817h-88v764q0 29 -1 47t-8.5 49t-20.5 49.5t-40 32.5t-66 14q-66 0 -116 -47q-31 -31 -47 -90v-819h-88z" />
<glyph unicode="i" horiz-adv-x="299" d="M104 0v1032h86v-1032h-86zM104 1151v160h86v-160h-86z" />
<glyph unicode="j" horiz-adv-x="342" d="M14 -246q45 10 74 33t40 59.5t13 62t2 75.5v1046h86v-1093q0 -41 -4 -69t-21.5 -74t-65.5 -79.5t-124 -48.5v88zM143 1149v160h86v-160h-86z" />
<glyph unicode="k" d="M106 0v1446h87v-899l296 485h101l-240 -395l264 -637h-96l-225 545l-98 -162v-383h-89z" />
<glyph unicode="l" horiz-adv-x="299" d="M106 0v1446h89v-1446h-89z" />
<glyph unicode="m" horiz-adv-x="1067" d="M106 0v1030h91v-86q82 98 192 98q119 0 174 -122q86 123 209 122q63 0 114.5 -34.5t67.5 -102.5q10 -39 11 -176v-729h-88v737q0 111 -9 142q-23 84 -118 84q-57 0 -100.5 -34t-56.5 -60.5t-13 -34.5v-834h-88v813q0 55 -19 90q-35 59 -113 60q-51 0 -92 -28t-57 -52.5 t-16 -32.5v-850h-89z" />
<glyph unicode="n" horiz-adv-x="681" d="M113 0v1032h86v-100q29 51 71 78q53 33 119 32q59 0 107 -26q88 -51 88 -189v-827h-86v825q0 74 -38 108t-89 34q-80 0 -135 -62q-23 -27 -37 -67v-838h-86z" />
<glyph unicode="o" d="M80 248v540q0 74 24.5 126.5t64.5 77t78 34.5t79 10q236 0 235 -254v-489q0 -135 -45 -201q-66 -96 -199 -96q-78 0 -137 35q-100 55 -100 217zM168 250q0 -170 147 -170q158 0 158 178v514q0 178 -145 178q-55 0 -91 -20.5t-49.5 -58t-16.5 -61.5t-3 -62v-498z" />
<glyph unicode="p" horiz-adv-x="681" d="M111 -334v1364h88v-90q74 100 190 100q72 0 116 -39.5t62 -95.5q16 -51 17 -172v-500q0 -123 -63.5 -180t-145.5 -57q-104 0 -176 88v-418h-88zM199 193q0 -12 14 -38t54 -52.5t91 -26.5q49 0 79 19.5t41 57t14.5 61.5t3.5 62v525q0 92 -42 127t-92 35 q-74 0 -118.5 -51.5t-44.5 -84.5v-634z" />
<glyph unicode="q" horiz-adv-x="681" d="M100 256v506q0 135 50 203q59 78 161 77q113 0 172 -94v84h86v-1366h-86v430q-63 -102 -186 -102q-74 0 -125 45q-72 65 -72 217zM186 336q0 -131 13 -166q29 -98 123 -98q61 0 110 51q43 47 51 133v492q0 96 -44 154.5t-115 58.5q-59 0 -97 -48q-41 -45 -41 -159v-418z " />
<glyph unicode="r" horiz-adv-x="425" d="M109 0v1030h84v-180q18 39 35.5 65.5t63.5 66.5t116 75v-117q-49 -14 -78 -28.5t-65 -59.5t-70 -125v-727h-86z" />
<glyph unicode="s" horiz-adv-x="598" d="M57 362h86v-90q0 -35 3.5 -58.5t16.5 -59t49 -55t91 -19.5q152 0 152 172q0 78 -28 117t-144 137q-72 59 -104 93t-57.5 89t-25.5 125q0 221 217 221q61 0 104.5 -19.5t65 -43t32.5 -63.5t12 -62.5t1 -57.5v-71h-88q0 59 -1 85.5t-7 63.5t-19.5 50.5t-38 24.5t-61.5 11 q-45 0 -73.5 -13t-40 -37.5t-13.5 -41t-2 -41.5q0 -74 31 -121t172 -163q59 -49 86 -77t48.5 -80t21.5 -124q0 -141 -74 -205q-63 -51 -166 -51q-129 0 -190 70q-39 41 -47.5 99t-8.5 195z" />
<glyph unicode="t" horiz-adv-x="382" d="M16 948v84h109v262h90v-262h156v-84h-156v-772q0 -27 1 -40t8 -29.5t23.5 -22.5t43.5 -6q35 0 80 4v-80q-47 -6 -92 -6q-86 0 -119 29.5t-33 91.5v831h-111z" />
<glyph unicode="u" horiz-adv-x="681" d="M102 238v794h86v-774q0 -188 136 -188q47 0 83.5 26.5t49 49t26.5 57.5v829h88v-1030h-88v96q-78 -102 -186 -102q-63 0 -113 33q-82 55 -82 209z" />
<glyph unicode="v" horiz-adv-x="555" d="M29 1030h90l121 -678q23 -127 34 -221q10 86 27 182l125 717h94l-196 -1030h-101z" />
<glyph unicode="w" horiz-adv-x="894" d="M29 1030h88l84 -512q39 -221 59 -381q14 111 39 242l115 651h71l142 -883l24 166q2 18 21.5 121t21.5 119l86 477h90l-198 -1030h-88l-107 657q-14 88 -26 203q-14 -104 -27 -170l-123 -690h-90z" />
<glyph unicode="x" d="M25 0l223 537l-203 493h92l117 -303l20 -51q18 -51 23 -62q18 55 39 107l125 309h94l-207 -483l219 -547h-96l-133 348q-25 63 -39 123q-10 -33 -47 -131l-131 -340h-96z" />
<glyph unicode="y" horiz-adv-x="598" d="M18 -248q33 -4 45 -4q137 0 166 141l25 119l-223 1024h88l180 -856l182 856h92l-264 -1147q-18 -76 -45.5 -122t-70.5 -66.5t-79 -25.5t-96 -5v86z" />
<glyph unicode="z" horiz-adv-x="598" d="M74 0v76l352 868h-324v86h428v-69l-356 -875h356v-86h-456z" />
<glyph unicode="{" horiz-adv-x="724" d="M205 547v67q78 10 105.5 73t27.5 216v164q0 59 5 104.5t21.5 96.5t45 86t80 60.5t122.5 31.5v-64q-106 -25 -147 -89t-41 -216q0 -276 -18.5 -366t-106.5 -127v-6q84 -35 104.5 -118t20.5 -292q0 -88 1 -128t10 -94.5t28.5 -80t56.5 -50t92 -36.5v-64q-76 6 -129 36 t-80.5 64.5t-43 91t-18.5 97.5t-3 102v134q0 162 -25.5 228.5t-107.5 78.5z" />
<glyph unicode="|" horiz-adv-x="468" d="M188 -512v2048h91v-2048h-91z" />
<glyph unicode="}" horiz-adv-x="724" d="M113 -221q106 25 147 89t41 216q0 276 18.5 366.5t106.5 127.5v6q-84 35 -104.5 117.5t-20.5 291.5q0 88 -1 128t-10 94.5t-28.5 80t-56.5 50t-92 36.5v64q76 -6 129 -36t80.5 -64.5t43 -91t18.5 -97.5t3 -102v-133q0 -162 25.5 -228.5t107.5 -79.5v-67 q-78 -12 -105.5 -74.5t-27.5 -214.5v-164q0 -59 -5 -104t-21.5 -96.5t-45 -86t-80 -60.5t-122.5 -32v64z" />
<glyph unicode="~" horiz-adv-x="1492" d="M297 569q98 154 231 154q49 0 91.5 -14.5t146.5 -61.5q147 -70 188 -69q43 0 83 23.5t59.5 45t50.5 62.5l51 -80q-115 -154 -242 -154q-63 0 -196 66q-170 80 -234 80q-39 0 -72.5 -19.5t-53 -41t-54.5 -68.5z" />
<glyph unicode="&#xa1;" horiz-adv-x="382" d="M96 1266v182h92v-182h-92zM98 0v788l19 279h53l29 -299v-768h-101z" />
<glyph unicode="&#xa2;" d="M82 295v475q0 137 56.5 191.5t144.5 66.5v127h59v-125q104 -12 154 -65q41 -47 50 -105.5t9 -195.5h-86q0 143 -12 184q-31 106 -135 106q-152 0 -152 -190v-442q0 -45 1 -69t9 -63.5t24.5 -60t48.5 -37t79 -16.5q143 0 143 168v149h90v-133q0 -45 -4 -73.5t-21.5 -74.5 t-64.5 -76t-121 -40v-139h-59v139q-61 6 -104.5 30.5t-64 53.5t-31.5 75t-12 71.5t-1 68.5z" />
<glyph unicode="&#xa3;" horiz-adv-x="768" d="M53 0v100q49 8 75 14.5t69 28t75 54.5q84 78 84 209q0 109 -73 202h-224v74h174q-37 72 -50 130t-13 192q0 170 33 235q63 121 211 121q160 0 213 -129q16 -37 21 -89t5 -214h-92q0 170 -2 202q-10 143 -149 144q-41 0 -71 -16.5t-44 -37t-21.5 -55.5t-8.5 -55t-1 -55 q0 -156 12.5 -221.5t67.5 -151.5h221v-74h-174q61 -96 62 -207q0 -70 -18.5 -124t-53.5 -89.5t-58.5 -53t-60.5 -38.5q10 0 67.5 -5t112 -8t70.5 -3q115 0 205 20v-88q-102 -20 -189 -20q-25 0 -170 10t-172 10q-43 0 -133 -12z" />
<glyph unicode="&#xa4;" horiz-adv-x="1366" d="M141 223l150 148q-41 55 -59.5 85.5t-39 95t-20.5 138.5q0 78 21.5 147.5t41 101.5t56.5 81l-146 145l68 68l143 -146q154 117 328 117q182 0 324 -117l147 146l68 -68l-146 -147q37 -51 56.5 -83t39 -98.5t19.5 -146.5q0 -174 -119 -319l150 -150l-70 -67l-147 147 q-45 -35 -74 -52.5t-98.5 -40t-149.5 -22.5q-84 0 -152.5 21.5t-100.5 42t-73 53.5l-149 -147zM264 698q0 -184 123 -304t299 -120t295 122t119 300q0 188 -124 304t-288 116q-188 0 -306 -123t-118 -295z" />
<glyph unicode="&#xa5;" horiz-adv-x="724" d="M29 1448h106l234 -684l241 684h97l-224 -612h176v-88h-208l-31 -89v-34h239v-88h-247v-537h-99v537h-247v88h239v34l-31 89h-208v88h178z" />
<glyph unicode="&#xa6;" horiz-adv-x="468" d="M190 -358v716h91v-716h-91zM190 666v716h91v-716h-91z" />
<glyph unicode="&#xa7;" horiz-adv-x="768" d="M92 125v108h92q0 -188 6 -219q27 -127 189 -127q57 0 97 17.5t59.5 38t31 56.5t12.5 56.5t1 50.5q0 106 -28 141.5t-161 110.5q-90 49 -130 75t-87 66t-64.5 82t-17.5 97q0 139 129 231q-33 27 -51 47.5t-37.5 71.5t-19.5 121q0 178 78.5 245.5t211.5 67.5 q76 0 130.5 -21.5t80 -47t39 -65.5t15.5 -60.5t2 -46.5v-166h-90v149q0 33 -3.5 53.5t-18.5 52t-54 49t-103 17.5q-111 0 -153.5 -57t-42.5 -170q0 -92 45 -139t170 -115q90 -49 128 -72.5t82 -62.5t58 -80t14 -100q0 -115 -98 -242q45 -47 56.5 -95t11.5 -137 q0 -111 -37 -178q-72 -123 -252 -123q-84 0 -142.5 24t-86 53.5t-43 81.5t-17.5 82t-2 79zM180 692q0 -57 30 -97t109 -89q20 -12 236 -133q57 72 57 168q0 133 -108 200q-16 10 -113.5 66.5t-114.5 66.5q-96 -63 -96 -182z" />
<glyph unicode="&#xa8;" horiz-adv-x="468" d="M84 1198v158h98v-158h-98zM287 1198v158h98v-158h-98z" />
<glyph unicode="&#xa9;" horiz-adv-x="1705" d="M125 725q0 307 212 517t519 210q303 0 514 -209t211 -524q0 -297 -210 -511t-517 -214q-295 0 -512 207t-217 524zM190 725q0 -283 195 -474.5t469 -191.5q281 0 471.5 193.5t190.5 468.5q0 281 -189.5 473t-470.5 192t-473.5 -194.5t-192.5 -466.5zM401 723 q0 205 137.5 338t327.5 133q219 0 377 -193l-67 -61q-39 47 -65 71.5t-94.5 58.5t-146.5 34q-152 0 -263 -107.5t-111 -271.5q0 -160 110.5 -267.5t259.5 -107.5q61 0 112.5 15.5t90.5 44t59.5 49t47.5 53.5l67 -55q-68 -92 -167 -144.5t-210 -52.5q-190 0 -327.5 132 t-137.5 331z" />
<glyph unicode="&#xaa;" horiz-adv-x="382" d="M33 1004q0 111 104 174q96 53 123 71q0 51 -1 71.5t-7 43t-20.5 29t-38.5 6.5q-33 0 -49.5 -20.5t-18.5 -42t-4 -72.5h-64q0 37 1 54t8.5 50t20.5 49.5t41 29.5t69 13q37 0 63.5 -11t38.5 -25.5t19.5 -40t8.5 -40t1 -38.5v-361q0 -23 32 -24v-58q-74 -6 -100 35 q-57 -37 -104 -37q-55 0 -89 40.5t-34 103.5zM102 1006q0 -39 19.5 -60.5t48.5 -21.5q43 0 90 47v200q-68 -35 -94.5 -51t-45 -44.5t-18.5 -69.5z" />
<glyph unicode="&#xab;" horiz-adv-x="768" d="M55 600l256 205h125l-258 -203l250 -207h-123zM344 600l256 205h121l-250 -205l240 -205h-115z" />
<glyph unicode="&#xac;" horiz-adv-x="1366" d="M0 551v92h1366v-641h-90v549h-1276z" />
<glyph unicode="&#xad;" horiz-adv-x="512" d="M76 555v88h362v-88h-362z" />
<glyph unicode="&#xae;" horiz-adv-x="1705" d="M125 723q0 309 214 519t513 210q307 0 519 -211t212 -522q0 -295 -210 -510t-521 -215q-293 0 -510 207t-217 522zM190 722.5q0 -278.5 195 -471t469 -192.5q281 0 472.5 195t191.5 465q0 281 -190.5 474t-475.5 193q-272 0 -467 -192.5t-195 -471zM578 274v902h262 q156 0 209 -23q59 -23 94 -76t35 -119q0 -86 -55.5 -146t-159.5 -75q59 -18 95 -56t46 -70.5t16 -82.5q27 -180 64 -254h-119q-12 29 -23 62q-4 16 -18 106t-16 103q-10 47 -31 78.5t-42.5 48t-68.5 25t-79.5 9.5t-106.5 1v-433h-102zM682 791h170q221 0 221 155 q0 100 -82 133q-37 16 -166 17h-143v-305z" />
<glyph unicode="&#xaf;" horiz-adv-x="468" d="M41 1198v86h385v-86h-385z" />
<glyph unicode="&#xb0;" horiz-adv-x="724" d="M72 1233q0 121 85 206t205.5 85t205.5 -85t85 -206t-85 -206t-205.5 -85t-205.5 86t-85 205zM164 1233q0 -84 58.5 -142.5t140 -58.5t141 58.5t59.5 142.5q0 82 -58.5 140.5t-142.5 58.5q-82 0 -140 -58.5t-58 -140.5z" />
<glyph unicode="&#xb1;" horiz-adv-x="1024" d="M63 0v94h900v-94h-900zM63 696v92h406v404h94v-404h400v-92h-400v-403h-94v403h-406z" />
<glyph unicode="&#xb2;" horiz-adv-x="468" d="M51 543q0 80 8 98q27 61 101 166q106 152 135 217.5t29 183.5q0 39 -2.5 60.5t-9.5 51.5t-26.5 44t-49.5 14q-90 0 -91 -123v-110h-73v110q0 199 163.5 199t163.5 -209q0 -158 -26.5 -231.5t-151.5 -249.5q-72 -102 -90 -150h268v-71h-348z" />
<glyph unicode="&#xb3;" horiz-adv-x="468" d="M49 733q-6 53 0 98h74q0 -66 3 -96t13.5 -67t33 -51.5t60.5 -14.5q111 0 111 150q0 125 -8 149q-25 82 -174 88v76q98 4 132 41t34 106q0 43 -1 62.5t-5.5 45.5t-12.5 35t-25.5 16t-41.5 7q-82 0 -82 -102l-4 -102h-74q2 156 12 186q33 92 150 92q55 0 91 -19.5t49 -55.5 t16 -59.5t3 -57.5q0 -51 -2 -77t-11 -59.5t-31.5 -55t-61.5 -38.5q55 -20 84 -56t34 -66.5t5 -82.5q0 -45 -1 -69.5t-6 -65.5t-16.5 -63.5t-31 -48t-52 -37t-77.5 -11.5q-70 0 -113 30t-55.5 75t-18.5 98z" />
<glyph unicode="&#xb4;" horiz-adv-x="468" d="M51 1161l172 223h195l-293 -223h-74z" />
<glyph unicode="&#xb5;" horiz-adv-x="681" d="M102 -334v1366h86v-776q0 -186 136 -186q47 0 83.5 26.5t49 49t26.5 57.5v829h88v-1032h-88v98q-78 -102 -170 -102q-49 0 -73.5 13.5t-51.5 43.5v-387h-86z" />
<glyph unicode="&#xb6;" horiz-adv-x="1366" d="M190 1057q0 176 119 286q115 102 338 103h432v-76h-67v-1712h-80v1712h-336v-1712h-80v1034q-137 16 -221 94q-105 103 -105 271z" />
<glyph unicode="&#xb7;" horiz-adv-x="299" d="M102 500v184h91v-184h-91z" />
<glyph unicode="&#xb8;" horiz-adv-x="468" d="M68 -264l38 45q74 -39 113 -39q35 0 54.5 20.5t19.5 44.5q0 68 -113 87l8 159h70l-8 -102q147 -47 149 -150q0 -47 -36.5 -88t-108 -40.5t-186.5 63.5z" />
<glyph unicode="&#xb9;" horiz-adv-x="468" d="M88 1249v72q61 16 92 42t49 85h70v-905h-80v762q-55 -44 -131 -56z" />
<glyph unicode="&#xba;" horiz-adv-x="382" d="M45 1024v270q0 170 145 170q143 0 144 -155v-285q0 -166 -150 -166q-49 0 -79.5 16.5t-42 48t-14.5 51t-3 50.5zM109 1024q0 -100 77 -100q37 0 56.5 19.5t21.5 35.5t2 45v270q0 31 -2 48.5t-20.5 37t-55.5 19.5q-80 0 -79 -105v-270z" />
<glyph unicode="&#xbb;" horiz-adv-x="768" d="M41 391l254 207l-238 203h113l250 -203l-254 -207h-125zM326 391l264 205l-250 205h125l248 -203l-258 -207h-129z" />
<glyph unicode="&#xbc;" horiz-adv-x="1193" d="M88 1249v72q61 16 92 42t49 85h70v-905h-80v762q-55 -44 -131 -56zM188 -121l750 1729q47 -20 53 -23l-753 -1728q-30 12 -50 22zM762 268v88l229 547h96v-561h107v-74h-107v-268h-75v268h-250zM827 342h185v453z" />
<glyph unicode="&#xbd;" horiz-adv-x="1193" d="M88 1249v74q63 16 93 42t48 83h70v-905h-80v762q-55 -44 -131 -56zM170 -119l750 1729q6 -4 26.5 -12.5t26.5 -12.5l-754 -1728zM776 0q0 80 8 98q27 61 101 166q106 152 135 217.5t29 184.5q0 39 -2.5 60.5t-9.5 51t-26.5 44t-49.5 14.5q-90 0 -91 -123v-111h-73v111 q0 199 163.5 198.5t163.5 -209.5q0 -158 -26.5 -231.5t-151.5 -249.5q-72 -102 -90 -149h268v-72h-348z" />
<glyph unicode="&#xbe;" horiz-adv-x="1193" d="M49 733q-6 53 0 98h74q0 -66 3 -96t13.5 -67t33 -51.5t60.5 -14.5q111 0 111 150q0 125 -8 149q-25 82 -174 88v76q98 4 132 41t34 106q0 43 -1 62.5t-5.5 45.5t-12.5 35t-25.5 16t-41.5 7q-82 0 -82 -102l-4 -102h-74q2 156 12 186q33 92 150 92q55 0 91 -19.5t49 -55.5 t16 -59.5t3 -57.5q0 -51 -2 -77t-11 -59.5t-31.5 -55t-61.5 -38.5q55 -20 84 -56t34 -66.5t5 -82.5q0 -45 -1 -69.5t-6 -65.5t-16.5 -63.5t-31 -48t-52 -37t-77.5 -11.5q-70 0 -113 30t-55.5 75t-18.5 98zM229 -121l750 1731q25 -12 53 -25l-753 -1728q-21 10 -50 22z M760 268v88l231 547h96v-561h107v-74h-107v-268h-75v268h-252zM827 342h185v453z" />
<glyph unicode="&#xbf;" horiz-adv-x="724" d="M74 389q0 86 14 144.5t31.5 90t66.5 105.5q66 96 80.5 126t14.5 77v160h96v-174q0 -57 -15.5 -91t-74.5 -122q-76 -109 -96.5 -158t-20.5 -139q0 -63 2 -104.5t11.5 -92.5t25.5 -80t47 -49.5t76 -20.5q154 0 153 273q0 20 -1 62t-1 63h95q0 -29 1 -59.5t2 -49t1 -35.5 q0 -338 -254 -338q-160 0 -222 142q-32 80 -32 270zM281 1262v184h96v-184h-96z" />
<glyph unicode="&#xc0;" horiz-adv-x="768" d="M49 0l264 1454h140l262 -1454h-107l-73 440h-304l-75 -440h-107zM121 1802h198l181 -221h-66zM248 535h268l-113 669q-2 8 -5 30.5t-7 54.5t-8 52l-6 -59q-2 -10 -5 -32.5t-5 -32.5z" />
<glyph unicode="&#xc1;" horiz-adv-x="768" d="M49 0l264 1454h140l262 -1454h-107l-73 440h-304l-75 -440h-107zM248 535h268l-113 669q-2 8 -5 30.5t-7 54.5t-8 52l-6 -59q-2 -10 -5 -32.5t-5 -32.5zM258 1575l172 223h193l-289 -223h-76z" />
<glyph unicode="&#xc2;" horiz-adv-x="768" d="M49 0l264 1454h140l262 -1454h-107l-73 440h-304l-75 -440h-107zM172 1575l160 223h102l150 -221h-82l-119 139l-125 -141h-86zM248 535h268l-113 669q-2 8 -5 30.5t-7 54.5t-8 52l-6 -59q-2 -10 -5 -32.5t-5 -32.5z" />
<glyph unicode="&#xc3;" horiz-adv-x="768" d="M49 0l264 1454h140l262 -1454h-107l-73 440h-304l-75 -440h-107zM160 1622q78 113 151 113q33 0 84 -19q68 -31 88 -30q18 0 35 9t26 18t36 38q2 -2 32 -27q-33 -47 -49 -68.5t-43.5 -40t-58.5 -18.5q-12 0 -88 26t-92 26q-43 0 -88 -54q-17 11 -33 27zM248 535h268 l-113 669q-2 8 -5 30.5t-7 54.5t-8 52l-6 -59q-2 -10 -5 -32.5t-5 -32.5z" />
<glyph unicode="&#xc4;" horiz-adv-x="768" d="M49 0l264 1454h140l262 -1454h-107l-73 440h-304l-75 -440h-107zM178 1616v156h107v-156h-107zM248 535h268l-113 669q-2 8 -5 30.5t-7 54.5t-8 52l-6 -59q-2 -10 -5 -32.5t-5 -32.5zM481 1616v156h107v-156h-107z" />
<glyph unicode="&#xc5;" horiz-adv-x="768" d="M49 0l264 1454h140l262 -1454h-107l-73 440h-304l-75 -440h-107zM248 535h268l-113 669q-2 8 -5 30.5t-7 54.5t-8 52l-6 -59q-2 -10 -5 -32.5t-5 -32.5zM248 1667q0 55 40 95t95 40t95 -40t40 -95t-40 -95t-95 -40q-57 0 -96 39t-39 96zM293 1667q0 -37 26.5 -63.5 t63.5 -26.5t63.5 26.5t26.5 63.5t-26.5 63.5t-63.5 26.5t-63.5 -26.5t-26.5 -63.5z" />
<glyph unicode="&#xc6;" horiz-adv-x="1024" d="M45 0l369 1446h534v-88h-325v-559h299v-90h-299v-619h360v-90h-459v627h-221l-153 -627h-105zM324 711h200v647h-37z" />
<glyph unicode="&#xc7;" horiz-adv-x="768" d="M106 328v784q0 70 2.5 104.5t19.5 82t52 81.5q80 80 215 80q94 0 160 -41q113 -70 113 -237v-203h-101q0 176 -3 226t-21 83q-39 80 -148 80q-190 0 -190 -225v-715q0 -53 1 -79.5t4 -72t10 -69t21.5 -54t36 -45t53 -25.5t75.5 -11q176 0 176 194v232h102v-224 q0 -57 -9 -99t-35 -89t-83 -74.5t-145 -34.5q0 -4 -1 -14t-1 -14q147 -43 147 -150q0 -47 -36 -87t-107 -40q-76 0 -187 64q31 37 39 45q70 -39 111 -39q35 0 54.5 19.5t19.5 45.5q0 66 -111 84l4 89q-68 10 -116 40.5t-70.5 65.5t-34.5 88t-14.5 81t-2.5 73z" />
<glyph unicode="&#xc8;" horiz-adv-x="681" d="M80 1802h199l180 -221h-66zM121 0v1446h512v-90h-412v-557h338v-88h-340v-621h412v-90h-510z" />
<glyph unicode="&#xc9;" horiz-adv-x="681" d="M121 0v1446h512v-90h-412v-557h338v-88h-340v-621h412v-90h-510zM248 1575l172 223h192l-288 -223h-76z" />
<glyph unicode="&#xca;" horiz-adv-x="681" d="M121 0v1446h512v-90h-412v-557h338v-88h-340v-621h412v-90h-510zM152 1575l159 223h103l149 -221h-82l-119 139l-124 -141h-86z" />
<glyph unicode="&#xcb;" horiz-adv-x="681" d="M121 0v1446h512v-90h-412v-557h338v-88h-340v-621h412v-90h-510zM160 1616v156h106v-156h-106zM463 1616v156h106v-156h-106z" />
<glyph unicode="&#xcc;" horiz-adv-x="342" d="M-92 1802h198l181 -221h-66zM119 0v1446h104v-1446h-104z" />
<glyph unicode="&#xcd;" horiz-adv-x="342" d="M45 1575l172 223h193l-289 -223h-76zM119 0v1446h104v-1446h-104z" />
<glyph unicode="&#xce;" horiz-adv-x="342" d="M-41 1575l160 223h102l150 -221h-82l-119 139l-125 -141h-86zM119 0v1446h104v-1446h-104z" />
<glyph unicode="&#xcf;" horiz-adv-x="342" d="M-33 1616v156h107v-156h-107zM119 0v1446h104v-1446h-104zM270 1616v156h107v-156h-107z" />
<glyph unicode="&#xd0;" horiz-adv-x="811" d="M0 758v86h123v602h168q96 0 166.5 -21.5t114.5 -68.5t71 -95.5t38 -128t14 -137t3 -149.5v-330q0 -68 -3 -111t-13 -111.5t-37 -113.5t-68.5 -90t-114.5 -67.5t-169 -22.5h-170v758h-123zM223 92q92 0 134 4t93.5 26.5t86.5 72.5q63 90 63 319v342q0 279 -55 377 q-35 57 -93.5 85t-101.5 32t-127 4v-510h226v-86h-226v-666z" />
<glyph unicode="&#xd1;" horiz-adv-x="811" d="M113 0v1446h147l350 -1403q-10 190 -10 348l-8 1055h98v-1446h-153l-342 1382q8 -221 8 -354l4 -1028h-94zM182 1622q78 113 152 113q33 0 84 -19q68 -31 88 -30q18 0 34.5 9t25.5 18t36 38q2 -2 33 -27q-33 -47 -49.5 -68.5t-44 -40t-58.5 -18.5q-12 0 -88 26t-92 26 q-43 0 -88 -54q-15 11 -33 27z" />
<glyph unicode="&#xd2;" horiz-adv-x="811" d="M113 309v815q0 152 51 226q78 113 248 112q162 0 233 -106q51 -76 51 -262v-797q0 -129 -47 -199q-76 -117 -248 -116q-82 0 -140 26.5t-86 60t-43 88t-17 83t-2 69.5zM143 1802h199l180 -221h-65zM209 348q0 -104 16.5 -156.5t61.5 -85.5q51 -35 119 -34q57 0 96 24 q59 33 78.5 91.5t19.5 146.5v704q0 221 -59 283q-51 51 -135 51q-86 0 -138 -51q-59 -57 -59 -176v-797z" />
<glyph unicode="&#xd3;" horiz-adv-x="811" d="M113 309v815q0 152 51 226q78 113 248 112q162 0 233 -106q51 -76 51 -262v-797q0 -129 -47 -199q-76 -117 -248 -116q-82 0 -140 26.5t-86 60t-43 88t-17 83t-2 69.5zM209 348q0 -104 16.5 -156.5t61.5 -85.5q51 -35 119 -34q57 0 96 24q59 33 78.5 91.5t19.5 146.5v704 q0 221 -59 283q-51 51 -135 51q-86 0 -138 -51q-59 -57 -59 -176v-797zM281 1575l172 223h192l-289 -223h-75z" />
<glyph unicode="&#xd4;" horiz-adv-x="811" d="M113 309v815q0 152 51 226q78 113 248 112q162 0 233 -106q51 -76 51 -262v-797q0 -129 -47 -199q-76 -117 -248 -116q-82 0 -140 26.5t-86 60t-43 88t-17 83t-2 69.5zM195 1575l159 223h103l149 -221h-82l-118 139l-125 -141h-86zM209 348q0 -104 16.5 -156.5 t61.5 -85.5q51 -35 119 -34q57 0 96 24q59 33 78.5 91.5t19.5 146.5v704q0 221 -59 283q-51 51 -135 51q-86 0 -138 -51q-59 -57 -59 -176v-797z" />
<glyph unicode="&#xd5;" horiz-adv-x="811" d="M113 309v815q0 152 51 226q78 113 248 112q162 0 233 -106q51 -76 51 -262v-797q0 -129 -47 -199q-76 -117 -248 -116q-82 0 -140 26.5t-86 60t-43 88t-17 83t-2 69.5zM182 1622q78 113 152 113q33 0 84 -19q68 -31 88 -30q18 0 34.5 9t25.5 18t36 38q2 -2 33 -27 q-33 -47 -49.5 -68.5t-44 -40t-58.5 -18.5q-12 0 -88 26t-92 26q-43 0 -88 -54q-15 11 -33 27zM209 348q0 -104 16.5 -156.5t61.5 -85.5q51 -35 119 -34q57 0 96 24q59 33 78.5 91.5t19.5 146.5v704q0 221 -59 283q-51 51 -135 51q-86 0 -138 -51q-59 -57 -59 -176v-797z " />
<glyph unicode="&#xd6;" horiz-adv-x="811" d="M113 309v815q0 152 51 226q78 113 248 112q162 0 233 -106q51 -76 51 -262v-797q0 -129 -47 -199q-76 -117 -248 -116q-82 0 -140 26.5t-86 60t-43 88t-17 83t-2 69.5zM199 1616v156h106v-156h-106zM209 348q0 -104 16.5 -156.5t61.5 -85.5q51 -35 119 -34q57 0 96 24 q59 33 78.5 91.5t19.5 146.5v704q0 221 -59 283q-51 51 -135 51q-86 0 -138 -51q-59 -57 -59 -176v-797zM502 1616v156h106v-156h-106z" />
<glyph unicode="&#xd7;" horiz-adv-x="1024" d="M135 285l311 313l-311 313l64 64l313 -311l313 311l64 -64l-309 -313l309 -313l-64 -66l-313 316l-313 -316z" />
<glyph unicode="&#xd8;" horiz-adv-x="811" d="M72 -37l73 172q-35 74 -34 166v729q0 135 6 191.5t33 107.5q78 143 260 144q57 0 100 -17q43 -14 75.5 -38.5t43 -40t26.5 -42.5l58 133l55 -26l-82 -193q10 -57 10 -104v-830q0 -33 -2 -59.5t-17 -81.5t-44 -92t-89.5 -67.5t-144.5 -30.5q-61 0 -109 17t-64.5 31.5 t-43.5 43.5l-57 -137q-12 6 -53 24zM209 283l385 907q-12 88 -45 129q-51 63 -146 63q-90 0 -143 -65q-51 -59 -51 -203v-831zM229 188q37 -113 174 -112q111 0 153 66.5t42 189.5v708z" />
<glyph unicode="&#xd9;" horiz-adv-x="811" d="M117 342v1106h98v-1122q0 -43 1 -66.5t11.5 -65.5t28.5 -65t57 -41t95 -18q102 0 149 69q23 31 29 77t6 169v1063h100v-1159q0 -31 -2 -56.5t-17.5 -78t-43 -87t-87 -63.5t-141.5 -29q-111 0 -184 56q-47 35 -70.5 92t-26.5 99t-3 120zM143 1802h199l180 -221h-65z" />
<glyph unicode="&#xda;" horiz-adv-x="811" d="M117 342v1106h98v-1122q0 -43 1 -66.5t11.5 -65.5t28.5 -65t57 -41t95 -18q102 0 149 69q23 31 29 77t6 169v1063h100v-1159q0 -31 -2 -56.5t-17.5 -78t-43 -87t-87 -63.5t-141.5 -29q-111 0 -184 56q-47 35 -70.5 92t-26.5 99t-3 120zM281 1575l172 223h192l-289 -223 h-75z" />
<glyph unicode="&#xdb;" horiz-adv-x="811" d="M117 342v1106h98v-1122q0 -43 1 -66.5t11.5 -65.5t28.5 -65t57 -41t95 -18q102 0 149 69q23 31 29 77t6 169v1063h100v-1159q0 -31 -2 -56.5t-17.5 -78t-43 -87t-87 -63.5t-141.5 -29q-111 0 -184 56q-47 35 -70.5 92t-26.5 99t-3 120zM195 1575l159 223h103l149 -221 h-82l-118 139l-125 -141h-86z" />
<glyph unicode="&#xdc;" horiz-adv-x="811" d="M117 342v1106h98v-1122q0 -43 1 -66.5t11.5 -65.5t28.5 -65t57 -41t95 -18q102 0 149 69q23 31 29 77t6 169v1063h100v-1159q0 -31 -2 -56.5t-17.5 -78t-43 -87t-87 -63.5t-141.5 -29q-111 0 -184 56q-47 35 -70.5 92t-26.5 99t-3 120zM199 1616v156h106v-156h-106z M502 1616v156h106v-156h-106z" />
<glyph unicode="&#xdd;" horiz-adv-x="724" d="M29 1446h106l230 -680l231 680h111l-295 -807v-639h-99v639zM238 1575l172 223h192l-289 -223h-75z" />
<glyph unicode="&#xde;" horiz-adv-x="768" d="M117 0v1448h100v-242h125q113 0 179.5 -15t109.5 -71q25 -31 36 -73.5t13 -73.5t2 -90v-162q0 -43 -2 -70.5t-18.5 -77t-47 -79t-94 -53t-153.5 -23.5h-148v-418h-102zM217 504h162q70 0 114 19.5t62 55t23.5 66.5t5.5 76v123q0 172 -38 224t-175 52h-154v-616z" />
<glyph unicode="&#xdf;" horiz-adv-x="724" d="M111 0v1182q0 59 8 102t33.5 87t80 67.5t138.5 23.5q115 0 174 -65q47 -53 47 -144v-163q0 -70 -26.5 -114t-51.5 -57.5t-68 -27.5q109 -41 145 -96.5t36 -171.5v-453q0 -186 -176 -186q-145 0 -146 141v162h62v-133q0 -88 82 -88q90 0 90 120v377q0 72 -5.5 111t-25 80 t-64.5 60.5t-118 25.5v88q76 2 117.5 32.5t51 65.5t9.5 92q0 154 -6 176q-23 86 -136 86q-47 0 -79.5 -14t-49 -32.5t-24.5 -53.5t-9 -55.5t-1 -59.5v-1165h-88z" />
<glyph unicode="&#xe0;" d="M57 242q0 70 18.5 124t56.5 92t69.5 59.5t83.5 47.5q125 66 172 103v118q0 55 -7.5 87t-37 56.5t-86.5 24.5q-49 0 -79 -16t-42 -56t-14.5 -72t-2.5 -97h-88q0 63 2 96t13.5 84t35 76.5t70.5 46t115 20.5q209 0 209 -225v-692q0 -37 61 -37v-82q-72 0 -103.5 15.5 t-43.5 64.5q-102 -80 -199 -80q-102 0 -152.5 69t-50.5 173zM82 1389h199l178 -224h-68zM145 240q0 -68 33 -113t101 -45q41 0 78.5 17.5t55 34t46.5 46.5v391q-31 -20 -123 -71q-51 -29 -75.5 -46.5t-56.5 -48t-45.5 -70.5t-13.5 -95z" />
<glyph unicode="&#xe1;" d="M57 242q0 70 18.5 124t56.5 92t69.5 59.5t83.5 47.5q125 66 172 103v118q0 55 -7.5 87t-37 56.5t-86.5 24.5q-49 0 -79 -16t-42 -56t-14.5 -72t-2.5 -97h-88q0 63 2 96t13.5 84t35 76.5t70.5 46t115 20.5q209 0 209 -225v-692q0 -37 61 -37v-82q-72 0 -103.5 15.5 t-43.5 64.5q-102 -80 -199 -80q-102 0 -152.5 69t-50.5 173zM145 240q0 -68 33 -113t101 -45q41 0 78.5 17.5t55 34t46.5 46.5v391q-31 -20 -123 -71q-51 -29 -75.5 -46.5t-56.5 -48t-45.5 -70.5t-13.5 -95zM215 1161l172 223h195l-293 -223h-74z" />
<glyph unicode="&#xe2;" d="M57 242q0 70 18.5 124t56.5 92t69.5 59.5t83.5 47.5q125 66 172 103v118q0 55 -7.5 87t-37 56.5t-86.5 24.5q-49 0 -79 -16t-42 -56t-14.5 -72t-2.5 -97h-88q0 63 2 96t13.5 84t35 76.5t70.5 46t115 20.5q209 0 209 -225v-692q0 -37 61 -37v-82q-72 0 -103.5 15.5 t-43.5 64.5q-102 -80 -199 -80q-102 0 -152.5 69t-50.5 173zM133 1165l158 221h102l148 -221h-80l-119 140l-125 -140h-84zM145 240q0 -68 33 -113t101 -45q41 0 78.5 17.5t55 34t46.5 46.5v391q-31 -20 -123 -71q-51 -29 -75.5 -46.5t-56.5 -48t-45.5 -70.5t-13.5 -95z" />
<glyph unicode="&#xe3;" d="M57 242q0 70 18.5 124t56.5 92t69.5 59.5t83.5 47.5q125 66 172 103v118q0 55 -7.5 87t-37 56.5t-86.5 24.5q-49 0 -79 -16t-42 -56t-14.5 -72t-2.5 -97h-88q0 63 2 96t13.5 84t35 76.5t70.5 46t115 20.5q209 0 209 -225v-692q0 -37 61 -37v-82q-72 0 -103.5 15.5 t-43.5 64.5q-102 -80 -199 -80q-102 0 -152.5 69t-50.5 173zM119 1210q78 113 151 113q35 0 82 -18q68 -31 90 -31q25 0 43.5 13t51.5 52q31 -25 32 -26q-43 -68 -74.5 -97.5t-76.5 -29.5q-12 0 -87 25.5t-91 25.5q-43 0 -88 -53q-17 8 -33 26zM145 240q0 -68 33 -113 t101 -45q41 0 78.5 17.5t55 34t46.5 46.5v391q-31 -20 -123 -71q-51 -29 -75.5 -46.5t-56.5 -48t-45.5 -70.5t-13.5 -95z" />
<glyph unicode="&#xe4;" d="M57 242q0 70 18.5 124t56.5 92t69.5 59.5t83.5 47.5q125 66 172 103v118q0 55 -7.5 87t-37 56.5t-86.5 24.5q-49 0 -79 -16t-42 -56t-14.5 -72t-2.5 -97h-88q0 63 2 96t13.5 84t35 76.5t70.5 46t115 20.5q209 0 209 -225v-692q0 -37 61 -37v-82q-72 0 -103.5 15.5 t-43.5 64.5q-102 -80 -199 -80q-102 0 -152.5 69t-50.5 173zM145 240q0 -68 33 -113t101 -45q41 0 78.5 17.5t55 34t46.5 46.5v391q-31 -20 -123 -71q-51 -29 -75.5 -46.5t-56.5 -48t-45.5 -70.5t-13.5 -95zM186 1198v158h99v-158h-99zM389 1198v158h98v-158h-98z" />
<glyph unicode="&#xe5;" d="M57 242q0 70 18.5 124t56.5 92t69.5 59.5t83.5 47.5q125 66 172 103v118q0 55 -7.5 87t-37 56.5t-86.5 24.5q-49 0 -79 -16t-42 -56t-14.5 -72t-2.5 -97h-88q0 63 2 96t13.5 84t35 76.5t70.5 46t115 20.5q209 0 209 -225v-692q0 -37 61 -37v-82q-72 0 -103.5 15.5 t-43.5 64.5q-102 -80 -199 -80q-102 0 -152.5 69t-50.5 173zM145 240q0 -68 33 -113t101 -45q41 0 78.5 17.5t55 34t46.5 46.5v391q-31 -20 -123 -71q-51 -29 -75.5 -46.5t-56.5 -48t-45.5 -70.5t-13.5 -95zM203 1259.5q0 57.5 40 97.5t95 40t95 -40t40 -97q0 -55 -40 -95.5 t-95 -40.5q-57 0 -96 39t-39 96.5zM248 1260q0 -35 26.5 -63t63.5 -28t63.5 28t26.5 63q0 37 -26.5 64.5t-63.5 27.5t-63.5 -27.5t-26.5 -64.5z" />
<glyph unicode="&#xe6;" horiz-adv-x="1024" d="M61 240q0 119 52.5 190.5t162.5 124.5q100 51 189 109v159q0 63 -29 95q-33 35 -98.5 34.5t-101.5 -37.5q-18 -20 -27.5 -53t-10.5 -60.5t-1 -84.5h-88q0 72 2 106.5t16 78.5t43 73q57 57 172 57q119 0 182 -82q66 84 187 84q66 0 112.5 -21.5t69 -49t34 -73.5 t13.5 -72.5t2 -72.5v-219h-389v-213q0 -90 12 -129q18 -57 58.5 -81.5t81.5 -24.5q74 0 116 51q25 31 30 65.5t5 159.5h88q0 -121 -8 -178q-16 -88 -82 -134t-143 -46q-88 0 -133.5 32.5t-83.5 94.5q-90 -127 -222 -127q-80 0 -131 43q-80 62 -80 201zM147 242 q0 -80 39 -125q37 -39 105 -39q51 0 90 24.5t52 45t34 59.5v371q-35 -29 -141 -86q-35 -18 -56.5 -33t-54.5 -44.5t-50.5 -73.5t-17.5 -99zM553 600h303v180q0 90 -39 131t-110 41q-76 0 -119 -51q-35 -45 -35 -158v-143z" />
<glyph unicode="&#xe7;" d="M82 295v475q0 260 237 260q100 0 177 -65q41 -47 50 -105.5t9 -195.5h-86q0 143 -12 184q-31 106 -135 106q-152 0 -152 -190v-442q0 -45 1 -69t9 -63.5t24.5 -60t48.5 -37t79 -16.5q143 0 143 168v149h90v-133q0 -35 -1 -57.5t-12 -62.5t-32.5 -65.5t-64.5 -49 t-105 -29.5q-4 -25 -4 -45q147 -47 148 -150q0 -47 -36 -88t-108 -41q-76 0 -186 64q31 37 39 45q70 -39 110 -39q35 0 54.5 20.5t19.5 44.5q0 68 -111 87l7 102q-57 8 -97.5 33.5t-60 54.5t-30.5 74t-12 70.5t-1 66.5z" />
<glyph unicode="&#xe8;" d="M59 1389h199l178 -224h-67zM88 250v538q0 119 60.5 183.5t170.5 64.5q57 0 100.5 -14t69 -43t41 -55.5t21.5 -71.5t7 -69.5t1 -69.5v-207h-385v-254q0 -174 152 -174q102 0 133 86q14 35 14 192h86v-114q0 -117 -61.5 -180.5t-175.5 -63.5q-100 0 -162 57q-72 62 -72 195 zM174 578h297v190q0 190 -147 190q-150 0 -150 -198v-182z" />
<glyph unicode="&#xe9;" d="M88 250v538q0 119 60.5 183.5t170.5 64.5q57 0 100.5 -14t69 -43t41 -55.5t21.5 -71.5t7 -69.5t1 -69.5v-207h-385v-254q0 -174 152 -174q102 0 133 86q14 35 14 192h86v-114q0 -117 -61.5 -180.5t-175.5 -63.5q-100 0 -162 57q-72 62 -72 195zM174 578h297v190 q0 190 -147 190q-150 0 -150 -198v-182zM193 1161l172 223h194l-293 -223h-73z" />
<glyph unicode="&#xea;" d="M88 250v538q0 119 60.5 183.5t170.5 64.5q57 0 100.5 -14t69 -43t41 -55.5t21.5 -71.5t7 -69.5t1 -69.5v-207h-385v-254q0 -174 152 -174q102 0 133 86q14 35 14 192h86v-114q0 -117 -61.5 -180.5t-175.5 -63.5q-100 0 -162 57q-72 62 -72 195zM111 1165l157 221h103 l147 -221h-80l-119 140l-124 -140h-84zM174 578h297v190q0 190 -147 190q-150 0 -150 -198v-182z" />
<glyph unicode="&#xeb;" d="M88 250v538q0 119 60.5 183.5t170.5 64.5q57 0 100.5 -14t69 -43t41 -55.5t21.5 -71.5t7 -69.5t1 -69.5v-207h-385v-254q0 -174 152 -174q102 0 133 86q14 35 14 192h86v-114q0 -117 -61.5 -180.5t-175.5 -63.5q-100 0 -162 57q-72 62 -72 195zM164 1198v158h98v-158h-98 zM174 578h297v190q0 190 -147 190q-150 0 -150 -198v-182zM367 1198v158h98v-158h-98z" />
<glyph unicode="&#xec;" horiz-adv-x="299" d="M-111 1389h199l178 -224h-67zM106 0v1032h89v-1032h-89z" />
<glyph unicode="&#xed;" horiz-adv-x="299" d="M23 1161l172 223h194l-293 -223h-73zM106 0v1032h89v-1032h-89z" />
<glyph unicode="&#xee;" horiz-adv-x="299" d="M-59 1165l157 221h103l147 -221h-80l-118 140l-125 -140h-84zM106 0v1032h89v-1032h-89z" />
<glyph unicode="&#xef;" horiz-adv-x="299" d="M-6 1198v158h98v-158h-98zM106 0v1032h89v-1032h-89zM197 1198v158h98v-158h-98z" />
<glyph unicode="&#xf0;" d="M80 248v540q0 70 24.5 121.5t54 75t70.5 36.5t58.5 14t31.5 1q41 0 74 -14t48.5 -28.5t35.5 -41.5q-6 61 -10 93t-21.5 80.5t-48.5 99.5l-211 -80l-28 63l196 76q-66 78 -141 135l72 37q80 -70 143 -143l133 49l27 -66l-117 -43q29 -49 43 -83.5t31.5 -135t17.5 -239.5 l-2 -502q0 -133 -43 -201q-68 -96 -201 -96q-78 0 -137 35q-100 55 -100 217zM168 250q0 -170 147 -170q158 0 158 178v514q0 178 -145 178q-55 0 -91 -20.5t-49.5 -58t-16.5 -62.5t-3 -61v-498z" />
<glyph unicode="&#xf1;" horiz-adv-x="681" d="M113 0v1032h86v-100q29 51 71 78q53 33 119 32q59 0 107 -26q88 -51 88 -189v-827h-86v825q0 74 -38 108t-89 34q-80 0 -135 -62q-23 -27 -37 -67v-838h-86zM119 1210q78 113 151 113q35 0 82 -18q68 -31 90 -31q25 0 43.5 13t51.5 52q31 -25 32 -26q-43 -68 -74.5 -97.5 t-76.5 -29.5q-12 0 -87 25.5t-91 25.5q-43 0 -88 -53q-17 8 -33 26z" />
<glyph unicode="&#xf2;" d="M59 1389h199l178 -224h-67zM80 248v540q0 74 24.5 126.5t64.5 77t78 34.5t79 10q236 0 235 -254v-489q0 -135 -45 -201q-66 -96 -199 -96q-78 0 -137 35q-100 55 -100 217zM168 250q0 -170 147 -170q158 0 158 178v514q0 178 -145 178q-55 0 -91 -20.5t-49.5 -58 t-16.5 -61.5t-3 -62v-498z" />
<glyph unicode="&#xf3;" d="M80 248v540q0 74 24.5 126.5t64.5 77t78 34.5t79 10q236 0 235 -254v-489q0 -135 -45 -201q-66 -96 -199 -96q-78 0 -137 35q-100 55 -100 217zM168 250q0 -170 147 -170q158 0 158 178v514q0 178 -145 178q-55 0 -91 -20.5t-49.5 -58t-16.5 -61.5t-3 -62v-498zM193 1161 l172 223h194l-293 -223h-73z" />
<glyph unicode="&#xf4;" d="M80 248v540q0 74 24.5 126.5t64.5 77t78 34.5t79 10q236 0 235 -254v-489q0 -135 -45 -201q-66 -96 -199 -96q-78 0 -137 35q-100 55 -100 217zM111 1165l157 221h103l147 -221h-80l-119 140l-124 -140h-84zM168 250q0 -170 147 -170q158 0 158 178v514q0 178 -145 178 q-55 0 -91 -20.5t-49.5 -58t-16.5 -61.5t-3 -62v-498z" />
<glyph unicode="&#xf5;" d="M80 248v540q0 74 24.5 126.5t64.5 77t78 34.5t79 10q236 0 235 -254v-489q0 -135 -45 -201q-66 -96 -199 -96q-78 0 -137 35q-100 55 -100 217zM96 1210q78 113 152 113q35 0 82 -18q68 -31 90 -31q25 0 43 13t51 52q31 -25 33 -26q-43 -68 -75 -97.5t-77 -29.5 q-12 0 -87 25.5t-91 25.5q-43 0 -88 -53q-15 8 -33 26zM168 250q0 -170 147 -170q158 0 158 178v514q0 178 -145 178q-55 0 -91 -20.5t-49.5 -58t-16.5 -61.5t-3 -62v-498z" />
<glyph unicode="&#xf6;" d="M80 248v540q0 74 24.5 126.5t64.5 77t78 34.5t79 10q236 0 235 -254v-489q0 -135 -45 -201q-66 -96 -199 -96q-78 0 -137 35q-100 55 -100 217zM168 250q0 -170 147 -170q158 0 158 178v514q0 178 -145 178q-55 0 -91 -20.5t-49.5 -58t-16.5 -61.5t-3 -62v-498zM170 1198 v158h98v-158h-98zM373 1198v158h98v-158h-98z" />
<glyph unicode="&#xf7;" horiz-adv-x="1024" d="M0 549v94h1024v-94h-1024zM436 348q0 33 22.5 56.5t55.5 23.5q37 0 59.5 -23.5t22.5 -56.5t-22.5 -56.5t-57.5 -23.5t-57.5 23.5t-22.5 56.5zM436 844q0 33 22.5 56.5t55.5 23.5q37 0 59.5 -23.5t22.5 -56.5t-22.5 -56.5t-57.5 -23.5t-57.5 23.5t-22.5 56.5z" />
<glyph unicode="&#xf8;" d="M45 10l55 109q-23 72 -22 121v518q0 276 250 276q131 0 192 -86l45 84l19 -9l18 -9l-59 -115q16 -59 16 -108v-545q0 -119 -64.5 -184.5t-185.5 -65.5q-119 0 -186 82l-43 -86q-10 6 -35 18zM166 250l299 588q-6 23 -11 36t-20.5 34.5t-43.5 31.5t-68 10 q-156 0 -156 -196v-504zM174 176q33 -98 143 -98q45 0 76 16.5t46.5 36t23.5 57t9 60t1 63.5v445z" />
<glyph unicode="&#xf9;" horiz-adv-x="681" d="M82 1389h199l178 -224h-68zM102 238v794h86v-774q0 -188 136 -188q47 0 83.5 26.5t49 49t26.5 57.5v829h88v-1030h-88v96q-78 -102 -186 -102q-63 0 -113 33q-82 55 -82 209z" />
<glyph unicode="&#xfa;" horiz-adv-x="681" d="M102 238v794h86v-774q0 -188 136 -188q47 0 83.5 26.5t49 49t26.5 57.5v829h88v-1030h-88v96q-78 -102 -186 -102q-63 0 -113 33q-82 55 -82 209zM215 1161l172 223h195l-293 -223h-74z" />
<glyph unicode="&#xfb;" horiz-adv-x="681" d="M102 238v794h86v-774q0 -188 136 -188q47 0 83.5 26.5t49 49t26.5 57.5v829h88v-1030h-88v96q-78 -102 -186 -102q-63 0 -113 33q-82 55 -82 209zM133 1165l158 221h102l148 -221h-80l-119 140l-125 -140h-84z" />
<glyph unicode="&#xfc;" horiz-adv-x="681" d="M102 238v794h86v-774q0 -188 136 -188q47 0 83.5 26.5t49 49t26.5 57.5v829h88v-1030h-88v96q-78 -102 -186 -102q-63 0 -113 33q-82 55 -82 209zM186 1198v158h99v-158h-99zM389 1198v158h98v-158h-98z" />
<glyph unicode="&#xfd;" horiz-adv-x="598" d="M18 -248q33 -4 45 -4q137 0 166 141l25 119l-223 1024h88l180 -856l182 856h92l-264 -1147q-18 -76 -45.5 -122t-70.5 -66.5t-79 -25.5t-96 -5v86zM174 1161l172 223h195l-293 -223h-74z" />
<glyph unicode="&#xfe;" horiz-adv-x="681" d="M111 -334v1782h84v-514q84 106 194 106q72 0 116 -39.5t62 -95.5q16 -51 17 -172v-500q0 -123 -62.5 -180t-144.5 -57q-106 0 -178 88v-418h-88zM199 193q0 -12 15 -38t54 -52.5t90 -26.5q49 0 79 19.5t41 57t14.5 61.5t3.5 62v525q0 92 -42 127t-92 35 q-74 0 -118.5 -51.5t-44.5 -84.5v-634z" />
<glyph unicode="&#xff;" horiz-adv-x="598" d="M18 -248q33 -4 45 -4q137 0 166 141l25 119l-223 1024h88l180 -856l182 856h92l-264 -1147q-18 -76 -45.5 -122t-70.5 -66.5t-79 -25.5t-96 -5v86zM166 1198v158h98v-158h-98zM369 1198v158h98v-158h-98z" />
<glyph unicode="&#x152;" horiz-adv-x="1110" d="M102 283v833q0 115 24 181.5t81 109.5q72 55 184 55q117 0 205 -82v68h473v-90h-377v-565h334v-86h-332v-619h377v-88h-473v82q-23 -29 -41 -45.5t-68.5 -36.5t-113.5 -20q-137 0 -205 82t-68 221zM199 334q0 -117 20 -162q23 -49 68 -77.5t100 -28.5q74 0 142.5 52 t68.5 171v772q0 51 -1 80.5t-12.5 80t-32 79t-63.5 52t-102 23.5q-98 0 -143 -60.5t-45 -148.5v-833z" />
<glyph unicode="&#x153;" horiz-adv-x="1024" d="M86 264v467q0 63 2 92t11.5 64t29.5 61q55 84 195 84q57 0 100 -18.5t59.5 -35.5t38.5 -46q66 102 199 102q109 0 170 -67q27 -31 39 -75t14 -78t2 -101v-191h-385v-203q0 -49 3 -77.5t15.5 -73.5t47.5 -68.5t88 -23.5q37 0 59 10q84 33 84 152v108h88q0 -186 -24 -237 q-53 -117 -201 -117q-68 0 -114 22.5t-61.5 43t-31.5 53.5q-78 -119 -207 -119q-63 0 -107 22.5t-65.5 49t-34 71.5t-13.5 68.5t-1 60.5zM172 319q0 -45 1 -69.5t8 -63.5t21.5 -58t44 -35.5t70.5 -16.5q156 0 156 200v494q0 182 -149 182q-45 0 -82 -20q-70 -41 -70 -162 v-451zM559 596h299v168q0 190 -141 190q-66 0 -112 -46t-46 -142v-170z" />
<glyph unicode="&#x178;" horiz-adv-x="724" d="M29 1446h106l230 -680l231 680h111l-295 -807v-639h-99v639zM160 1616v156h106v-156h-106zM463 1616v156h106v-156h-106z" />
<glyph unicode="&#x2c6;" horiz-adv-x="468" d="M31 1165l157 221h103l147 -221h-80l-118 140l-125 -140h-84z" />
<glyph unicode="&#x2dc;" horiz-adv-x="468" d="M8 1210q78 113 152 113q35 0 82 -18q68 -31 90 -31q25 0 43 13t51 52q31 -25 33 -26q-43 -68 -75 -97.5t-77 -29.5q-12 0 -87 25.5t-91 25.5q-43 0 -88 -53q-17 8 -33 26z" />
<glyph unicode="&#x3bc;" horiz-adv-x="681" d="M102 -334v1366h86v-776q0 -186 136 -186q47 0 83.5 26.5t49 49t26.5 57.5v829h88v-1032h-88v98q-78 -102 -170 -102q-49 0 -73.5 13.5t-51.5 43.5v-387h-86z" />
<glyph unicode="&#x2013;" horiz-adv-x="724" d="M72 555v88h581v-88h-581z" />
<glyph unicode="&#x2014;" horiz-adv-x="980" d="M70 555v86h841v-86h-841z" />
<glyph unicode="&#x2018;" horiz-adv-x="299" d="M111 1075v187q0 88 22.5 123.5t69.5 60.5v-45q-31 -20 -41 -48t-8 -91h49v-187h-92z" />
<glyph unicode="&#x2019;" horiz-adv-x="299" d="M102 1075v45q31 20 41.5 47t10.5 93h-50v186h93v-186q0 -88 -23 -124t-72 -61z" />
<glyph unicode="&#x201a;" horiz-adv-x="299" d="M102 -139q31 20 41.5 46.5t10.5 92.5h-50v186h93v-186q0 -88 -22.5 -124t-72.5 -60v45z" />
<glyph unicode="&#x201c;" horiz-adv-x="512" d="M88 1075v187q0 88 22.5 123.5t69.5 60.5v-45q-31 -20 -40 -47t-9 -92h49v-187h-92zM311 1075v187q0 88 22.5 123.5t69.5 60.5v-45q-31 -20 -41 -47t-8 -92h49v-187h-92z" />
<glyph unicode="&#x201d;" horiz-adv-x="512" d="M96 1075v45q31 20 41 47t10 93h-49v186h92v-186q0 -88 -22.5 -124t-71.5 -61zM319 1075v45q31 20 41.5 47t10.5 93h-49v186h92v-186q0 -88 -23 -124t-72 -61z" />
<glyph unicode="&#x201e;" horiz-adv-x="512" d="M98 0v186h92v-186q0 -88 -22.5 -124t-69.5 -60v45q29 20 40.5 46.5t8.5 92.5h-49zM319 -139q33 20 42.5 46.5t9.5 92.5h-49v186h92v-186q0 -88 -22.5 -124t-72.5 -60v45z" />
<glyph unicode="&#x2022;" horiz-adv-x="681" d="M111 723q0 96 67.5 162.5t163.5 66.5q102 0 165.5 -66.5t63.5 -160.5q0 -100 -63.5 -165.5t-163.5 -65.5q-98 0 -165.5 65.5t-67.5 163.5z" />
<glyph unicode="&#x2026;" horiz-adv-x="2048" d="M299 0v184h90v-184h-90zM981 0v184h90v-184h-90zM1663 0v184h90v-184h-90z" />
<glyph unicode="&#x2039;" horiz-adv-x="512" d="M72 600l254 205h123l-250 -205l239 -205h-114z" />
<glyph unicode="&#x203a;" horiz-adv-x="512" d="M55 391l264 205l-249 205h125l245 -203l-256 -207h-129z" />
<glyph unicode="&#x2122;" horiz-adv-x="1406" d="M57 1372v74h527v-74h-219v-604h-82v604h-226zM643 768v678h121l182 -569l180 569h121v-678h-80v461l2 137l-190 -598h-72l-190 598l4 -137v-461h-78z" />
<glyph unicode="&#xe000;" horiz-adv-x="1030" d="M0 1030h1030v-1030h-1030v1030z" />
<glyph unicode="&#xfb01;" horiz-adv-x="681" d="M35 948v84h123v207q0 207 182 207q16 0 53 -4v-80q-12 2 -35 2q-117 0 -116 -129v-203h127v-84h-131v-948h-86v948h-117zM489 0v1032h86v-1032h-86zM489 1151v160h86v-160h-86z" />
<glyph unicode="&#xfb02;" horiz-adv-x="681" d="M35 948v84h123v207q0 207 182 207q18 0 51 -4v-80q-12 2 -35 2q-115 0 -114 -129v-203h127v-84h-131v-948h-86v948h-117zM489 0v1446h89v-1446h-89z" />
<glyph unicode="&#xfb03;" horiz-adv-x="1064" d="M870 0v1032h86v-1032h-86zM870 1151v160h86v-160h-86zM418 948v84h123v207q0 207 182 207q16 0 53 -4v-80q-14 2 -35 2q-117 0 -116 -129v-203h127v-84h-131v-948h-86v948h-117zM35 948v84h123v207q0 207 182 207q16 0 53 -4v-80q-14 2 -35 2q-117 0 -116 -129v-203h127 v-84h-131v-948h-86v948h-117z" />
<glyph unicode="&#xfb04;" horiz-adv-x="1064" d="M872 0v1446h89v-1446h-89zM418 948v84h123v207q0 207 182 207q16 0 53 -4v-80q-14 2 -35 2q-117 0 -116 -129v-203h127v-84h-131v-948h-86v948h-117zM35 948v84h123v207q0 207 182 207q16 0 53 -4v-80q-14 2 -35 2q-117 0 -116 -129v-203h127v-84h-131v-948h-86v948h-117 z" />
</font>
</defs>
</svg>
